<?xml version="1.0" standalone="no"?>
<!DOCTYPE svg PUBLIC "-//W3C//DTD SVG 1.1//EN" "http://www.w3.org/Graphics/SVG/1.1/DTD/svg11.dtd" >
<svg>
<metadata>
Created by FontForge 20090622 at Fri Jul 24 05:24:33 2020
 By deploy user
Copyright &#194;&#169; 2018 by Piotr ?apa. All rights reserved.
</metadata>
<defs>
<font id="GilmerRegular" horiz-adv-x="1243" >
  <font-face 
    font-family="Gilmer Regular"
    font-weight="400"
    font-stretch="normal"
    units-per-em="2048"
    panose-1="0 0 5 0 0 0 0 0 0 0"
    ascent="1618"
    descent="-430"
    x-height="1022"
    cap-height="1434"
    bbox="-649 -517 2825 1984"
    underline-thickness="0"
    underline-position="0"
    unicode-range="U+0020-U+FB02"
  />
<missing-glyph horiz-adv-x="1024" 
d="M840 1618v-2048h-650v2048h650zM682 1481h-338v-68h133v-76h-135v-67h340v67h-135v76h135v68zM547 1217h-205v-213h340v69h-135v144zM477 1147v-74h-67v74h67zM682 948h-340v-67h135v-76h-135v-68h205v144h135v67zM682 825h-68v-135h-272v-69h340v204zM682 575h-205v-114
h70v47h67v-96h-204v163h-68v-231h340v231zM682 221h-340v-231h340v231zM614 154v-97h-204v97h204zM682 -57h-340v-68h143l-143 -96v-68h340v68h-209l143 96h66v68z" />
    <glyph glyph-name="uniFB01" unicode="fi" horiz-adv-x="1189" 
d="M1059 1022l-1 -1023h-158v879h-477v-879h-156v879h-215v143h215v135q0 174 93 270t273 96q189 0 325 -107l-38 -133q-131 98 -275 98q-110 0 -165 -58q-56 -59 -56 -169v-131h635z" />
    <glyph glyph-name="uniFB02" unicode="fl" horiz-adv-x="1212" 
d="M635 1522h-2q243 0 424 -131v-1391h-158v1313q-119 67 -255 66q-110 0 -165 -58q-56 -59 -56 -169v-131h311v-143h-311v-879h-156v879h-215v143h215v135q0 174 93 270t275 96z" />
    <glyph glyph-name="f_f.liga" unicode="ff" horiz-adv-x="1452" 
d="M1059 1153v-131h366v-143h-366v-879h-158v879h-477v-879h-156v879h-215v143h215v135q0 175 82 270q82 96 240 96q122 0 207 -43l-41 -133q-68 35 -152 33q-180 0 -180 -227v-131h477v135q0 175 82 270q83 96 240 96q122 0 207 -43l-39 -133q-70 34 -154 33
q-178 0 -178 -227z" />
    <glyph glyph-name="f_f_i.liga" unicode="ffi" horiz-adv-x="1822" 
d="M1692 1022l-1 -1023h-158v879h-475v-879h-158v879h-477v-879h-156v879h-215v143h215v135q0 173 86 270q85 96 255 96q122 0 207 -43l-41 -133q-68 34 -150 33q-98 0 -149 -58q-51 -59 -51 -169v-131h477v135q0 174 93 270t274 96q187 0 324 -107l-41 -133
q-131 98 -273 98q-219 0 -219 -227v-131h633z" />
    <glyph glyph-name="f_f_l.liga" unicode="ffl" horiz-adv-x="1845" 
d="M1268 1522h3q243 0 424 -131v-1391h-158v1313q-121 67 -256 66q-219 0 -219 -227v-131h309v-143h-309v-879h-158v879h-477v-879h-156v879h-215v143h215v135q0 173 83 270q82 96 245 96q119 0 204 -43l-39 -133q-70 34 -153 33q-186 0 -186 -227v-131h477v135
q0 174 93 270t273 96z" />
    <glyph glyph-name=".notdef" horiz-adv-x="1024" 
d="M840 1618v-2048h-650v2048h650zM682 1481h-338v-68h133v-76h-135v-67h340v67h-135v76h135v68zM547 1217h-205v-213h340v69h-135v144zM477 1147v-74h-67v74h67zM682 948h-340v-67h135v-76h-135v-68h205v144h135v67zM682 825h-68v-135h-272v-69h340v204zM682 575h-205v-114
h70v47h67v-96h-204v163h-68v-231h340v231zM682 221h-340v-231h340v231zM614 154v-97h-204v97h204zM682 -57h-340v-68h143l-143 -96v-68h340v68h-209l143 96h66v68z" />
    <glyph glyph-name=".null" horiz-adv-x="0" 
 />
    <glyph glyph-name="nonmarkingreturn" horiz-adv-x="682" 
 />
    <glyph glyph-name="space" unicode=" " horiz-adv-x="530" 
 />
    <glyph glyph-name="exclam" unicode="!" horiz-adv-x="509" 
d="M195 395l-27 1039h180l-24 -1039h-129zM256 -14q-49 0 -82 33t-33 82q0 47 33 78q34 32 82 32t82 -32q33 -31 33 -78q0 -49 -33 -82t-82 -33z" />
    <glyph glyph-name="quotedbl" unicode="&#x22;" horiz-adv-x="692" 
d="M135 1012l-22 422h168l-21 -422h-125zM434 1012l-22 422h168l-21 -422h-125z" />
    <glyph glyph-name="numbersign" unicode="#" horiz-adv-x="1478" 
d="M1378 848h-297l-51 -322h299l-20 -133h-299l-62 -393h-143l61 393h-348l-61 -393h-144l62 393h-295l20 133h295l51 322h-296l20 131h297l63 403h144l-64 -403h348l64 403h143l-63 -403h297zM887 526l51 322h-348l-51 -322h348z" />
    <glyph glyph-name="dollar" unicode="$" horiz-adv-x="1323" 
d="M1235 397l1 -5q0 -169 -144 -292t-371 -132v-270h-139v279q-193 28 -333 146q-139 117 -192 275l156 48q50 -144 178 -236q129 -93 305 -93q167 0 272 81t105 187q0 84 -60 141t-205 102l-356 114q-316 102 -318 336q0 150 126 260t319 120v271h139v-277
q173 -25 298 -117q124 -91 181 -225l-151 -47q-56 116 -168 182q-113 66 -269 66q-136 0 -224 -67q-89 -68 -89 -160q0 -72 52 -118t174 -85l348 -111q185 -59 275 -141t90 -232z" />
    <glyph glyph-name="percent" unicode="%" horiz-adv-x="2045" 
d="M494 682q-164 0 -278 111t-114 273t114 273t278 111q166 0 280 -111t114 -273t-114 -273t-280 -111zM483 0l930 1434h148l-928 -1434h-150zM494 811h-3q111 0 185 75q74 76 74 179q0 106 -74 180t-184 74q-111 0 -183 -74q-72 -73 -72 -180q0 -103 74 -179
q73 -75 183 -75zM1549 -16v-2q-163 0 -277 111t-114 272q0 162 114 273t277 111q167 0 279 -111q113 -111 113 -272q0 -160 -113 -271q-112 -111 -279 -111zM1549 111v-1q109 0 183 75q74 76 74 180q0 107 -72 180q-72 74 -183 74q-110 0 -184 -74q-73 -73 -73 -180
q0 -104 72 -179t183 -75z" />
    <glyph glyph-name="ampersand" unicode="&#x26;" horiz-adv-x="1421" 
d="M1391 0l-203 -1l-168 176q-200 -203 -459 -203q-177 0 -304 113q-126 113 -126 288q0 126 74 238q73 110 219 187q-68 78 -102 144q-34 65 -34 152q0 168 114 266q115 98 288 98q160 0 269 -89t140 -219l-144 -41q-29 97 -96 152q-68 56 -168 56q-110 0 -178 -61
q-69 -62 -69 -163q0 -98 121 -228l445 -467q77 128 106 267l141 -37q-33 -177 -143 -339zM573 118v1q195 0 347 162l-400 417q-231 -128 -231 -318q0 -106 80 -184q79 -78 204 -78z" />
    <glyph glyph-name="quotesingle" unicode="'" horiz-adv-x="393" 
d="M135 1012l-22 422h168l-21 -422h-125z" />
    <glyph glyph-name="parenleft" unicode="(" horiz-adv-x="575" 
d="M516 -281l-158 -1q-238 397 -235 903q5 510 235 901h158q-235 -412 -234 -901q-2 -494 234 -902z" />
    <glyph glyph-name="parenright" unicode=")" horiz-adv-x="575" 
d="M59 -281h1q236 409 236 902q0 488 -236 901h158q232 -392 236 -901q2 -504 -237 -902h-158z" />
    <glyph glyph-name="asterisk" unicode="*" horiz-adv-x="843" 
d="M731 1247l-196 -106l196 -107l-63 -106l-191 116l6 -225h-123l7 225l-191 -116l-63 106l196 107l-196 106l63 107l191 -117l-7 223h123l-6 -223l191 117z" />
    <glyph glyph-name="plus" unicode="+" horiz-adv-x="1132" 
d="M989 784v-133h-354v-356h-135v356h-357v133h357v357h135v-357h354z" />
    <glyph glyph-name="comma" unicode="," horiz-adv-x="493" 
d="M113 -281l88 492h180l-133 -492h-135z" />
    <glyph glyph-name="hyphen" unicode="-" horiz-adv-x="1013" 
d="M143 567v135h727v-135h-727z" />
    <glyph glyph-name="period" unicode="." horiz-adv-x="454" 
d="M227 -14q-49 0 -82 33t-33 82q0 47 33 78q34 32 82 32t82 -32q33 -31 33 -78q0 -49 -33 -82t-82 -33z" />
    <glyph glyph-name="slash" unicode="/" horiz-adv-x="1118" 
d="M82 -186l811 1804h143l-811 -1804h-143z" />
    <glyph glyph-name="zero" unicode="0" horiz-adv-x="1302" 
d="M651 -27l-1 -1q-267 0 -414 207t-147 537q0 332 147 537q147 206 414 206q268 0 413 -205q146 -206 146 -537q0 -329 -146 -537q-145 -207 -412 -207zM649 124h-2q194 0 296 159t102 432q0 272 -102 433q-102 160 -295 160q-190 0 -292 -160q-102 -161 -102 -433
q0 -273 102 -432t293 -159z" />
    <glyph glyph-name="one" unicode="1" horiz-adv-x="788" 
d="M473 1434h137v-1434h-164v1245l-360 -174l-39 141z" />
    <glyph glyph-name="two" unicode="2" horiz-adv-x="1173" 
d="M330 150l738 -3v-150h-983v121l571 551q116 110 171 188q54 77 54 165q0 133 -83 210t-227 77q-129 0 -217 -76q-89 -77 -117 -205l-148 41q26 161 156 275t323 114q212 0 342 -115q131 -116 131 -316q0 -125 -66 -225q-67 -102 -205 -231z" />
    <glyph glyph-name="three" unicode="3" horiz-adv-x="1196" 
d="M664 870l-1 -1q201 0 323 -120t122 -313q0 -195 -144 -331q-143 -136 -358 -136q-224 0 -363 119q-138 118 -174 287l149 41q27 -128 129 -214q101 -85 255 -85q160 0 253 93t93 226q0 134 -84 219q-84 86 -223 86q-104 0 -186 -55l-31 109l414 491h-727v148h940v-121z
" />
    <glyph glyph-name="four" unicode="4" horiz-adv-x="1212" 
d="M1163 465v-148h-196v-317h-162v317h-744v123l535 994h178l-522 -969h553v362h162v-362h196z" />
    <glyph glyph-name="five" unicode="5" horiz-adv-x="1193" 
d="M618 913v-1q215 0 351 -130q137 -131 137 -337q0 -201 -142 -337t-360 -136q-208 0 -342 110q-133 109 -178 273l149 39q37 -122 131 -198q93 -75 234 -75q159 0 254 94q96 95 96 234q0 142 -92 234q-91 91 -258 91q-190 0 -336 -119l-123 39l64 740h829v-148h-686
l-39 -459q130 86 311 86z" />
    <glyph glyph-name="six" unicode="6" horiz-adv-x="1161" 
d="M598 946h1q220 -5 357 -142q138 -138 138 -343q0 -207 -144 -348t-369 -141t-369 141t-144 348q0 151 116 330l430 643h185l-342 -512q61 24 141 24zM583 123l1 -2q156 0 254 96t98 242q0 145 -99 243q-100 98 -256 98q-157 0 -255 -97q-99 -97 -99 -243q0 -145 99 -241
t257 -96z" />
    <glyph glyph-name="seven" unicode="7" horiz-adv-x="1073" 
d="M39 1434h985v-123l-584 -1311h-174l574 1284h-801v150z" />
    <glyph glyph-name="eight" unicode="8" horiz-adv-x="1234" 
d="M877 776l-1 -1q124 -49 195 -147t71 -226q0 -187 -145 -308q-146 -122 -379 -122q-235 0 -381 122q-145 121 -145 308q0 129 71 227q71 97 195 147q-96 46 -150 126t-54 182q0 158 128 266t336 108t335 -108q128 -108 128 -266q0 -102 -54 -182t-150 -126zM617 1320h-1
q-143 0 -224 -69t-81 -175t81 -175t224 -69q140 0 222 69q83 69 83 175t-82 175q-83 69 -222 69zM616 116l1 -1q162 0 261 84t99 209q0 128 -99 209t-262 81q-166 0 -265 -81t-99 -208t99 -210q100 -83 265 -83z" />
    <glyph glyph-name="nine" unicode="9" horiz-adv-x="1161" 
d="M579 1460l2 1q224 0 369 -140q144 -140 144 -347q0 -152 -117 -330l-430 -643h-185l343 512q-63 -25 -142 -24q-218 1 -357 140q-138 138 -138 344q0 207 143 347t368 140zM583 636l1 -1q157 0 254 97q98 98 98 241q0 146 -99 242t-256 96q-156 0 -255 -96t-99 -242
q0 -145 99 -241t257 -96z" />
    <glyph glyph-name="colon" unicode=":" horiz-adv-x="454" 
d="M227 778q-49 0 -82 33t-33 80t33 80t82 33t82 -33t33 -80t-33 -80t-82 -33zM227 -14q-49 0 -82 33t-33 82q0 47 33 78q34 32 82 32t82 -32q33 -31 33 -78q0 -49 -33 -82t-82 -33z" />
    <glyph glyph-name="semicolon" unicode=";" horiz-adv-x="501" 
d="M274 780q-48 0 -82 32q-33 32 -33 81q0 47 33 78q34 32 82 32t82 -32q33 -31 33 -78q0 -49 -33 -81q-34 -32 -82 -32zM112 -281l88 492h180l-133 -492h-135z" />
    <glyph glyph-name="less" unicode="&#x3c;" horiz-adv-x="1122" 
d="M969 1128v-147l-680 -262l680 -264v-148l-846 336v150z" />
    <glyph glyph-name="equal" unicode="=" horiz-adv-x="1134" 
d="M143 844v133h846v-133h-846zM147 459v133h844v-133h-844z" />
    <glyph glyph-name="greater" unicode="&#x3e;" horiz-adv-x="1122" 
d="M154 1128l845 -335v-150l-845 -336v148l680 264l-680 262v147z" />
    <glyph glyph-name="question" unicode="?" horiz-adv-x="1148" 
d="M471 395l-4 -1q0 103 40 186q41 86 97 137l113 101q55 47 96 107q40 58 40 126q0 116 -77 188q-76 72 -207 72t-216 -76q-86 -77 -116 -205l-146 43q34 166 158 276t323 110q196 0 320 -112q125 -113 125 -288q0 -90 -41 -164t-99 -125l-115 -102q-58 -52 -98 -120
q-41 -70 -41 -153h-152zM541 -15q-49 0 -82 33t-33 82q0 46 33 78q34 32 82 32t82 -32q33 -32 33 -78q0 -49 -33 -82t-82 -33z" />
    <glyph glyph-name="at" unicode="@" horiz-adv-x="2052" 
d="M1010 -362l4 -2q-394 0 -651 256q-258 256 -258 630q0 252 126 461t341 329q214 120 471 120q396 0 653 -256q258 -256 258 -646q0 -228 -112 -362q-112 -135 -273 -135q-105 0 -164 55q-60 56 -78 150q-117 -175 -344 -177q-185 0 -313 132q-127 131 -127 328
q0 199 126 330t316 131q219 0 340 -174v149h141v-639q0 -170 123 -168q92 0 164 103t72 279q0 335 -216 557t-565 222q-336 0 -573 -228t-237 -559q0 -326 222 -545t558 -219q272 0 429 123l35 -119q-178 -126 -468 -126zM997 193h-1q141 0 237 93t96 234q0 143 -93 236
t-239 93q-134 0 -223 -92q-88 -91 -88 -236q0 -139 89 -234q88 -94 222 -94z" />
    <glyph glyph-name="A" unicode="A" horiz-adv-x="1423" 
d="M1227 0l-156 385h-719l-155 -385h-174l587 1434h203l588 -1434h-174zM412 532h600l-299 738z" />
    <glyph glyph-name="B" unicode="B" horiz-adv-x="1402" 
d="M1051 750l-1 -1q121 -40 189 -134t68 -218q0 -173 -123 -285q-122 -112 -334 -112h-696v1434h649q193 0 318 -105t126 -268q3 -220 -196 -311zM796 1287l-484 -2v-485h500q122 0 198 71q75 70 73 174q0 106 -78 175q-77 69 -209 67zM841 142h-1q136 0 219 77
q82 76 82 188q0 104 -80 182q-79 78 -216 78h-533v-525h529z" />
    <glyph glyph-name="C" unicode="C" horiz-adv-x="1597" 
d="M829 -27l1 -2q-317 0 -530 215q-213 214 -213 533q0 313 213 526t528 213q247 0 426 -121q181 -122 248 -310l-160 -39q-55 139 -192 229q-136 90 -324 90q-253 0 -415 -170q-162 -169 -162 -414q0 -250 161 -423t417 -173q187 0 323 88q137 89 192 229l156 -41
q-70 -187 -249 -309q-178 -121 -420 -121z" />
    <glyph glyph-name="D" unicode="D" horiz-adv-x="1488" 
d="M698 1434q326 0 515 -201t189 -516t-189 -516t-515 -201h-544v1434h544zM696 150l-2 2q256 0 400 159t144 411q0 246 -144 405t-398 159h-381v-1136h381z" />
    <glyph glyph-name="E" unicode="E" horiz-adv-x="1275" 
d="M1163 1284h-848v-483h744v-144h-744v-507h846v-150h-1007v1434h1009v-150z" />
    <glyph glyph-name="F" unicode="F" horiz-adv-x="1185" 
d="M1147 1284h-830v-502h725v-145h-725v-637h-163v1434h993v-150z" />
    <glyph glyph-name="G" unicode="G" horiz-adv-x="1636" 
d="M1550 760l2 -91q-2 -324 -202 -511t-511 -187q-320 0 -535 214q-216 215 -216 534q0 313 213 526t528 213q241 0 420 -117t252 -306l-153 -41q-62 142 -196 227q-136 86 -322 86q-256 0 -418 -170q-162 -169 -162 -414q0 -250 162 -424t429 -174q232 0 383 134
q150 133 165 359h-564v142h725z" />
    <glyph glyph-name="H" unicode="H" horiz-adv-x="1470" 
d="M1153 1434h164v-1434h-164v657h-836v-657h-163v1434h163v-629h836v629z" />
    <glyph glyph-name="I" unicode="I" horiz-adv-x="471" 
d="M154 0v1434h163v-1434h-163z" />
    <glyph glyph-name="J" unicode="J" 
d="M1108 1434l1 -963q0 -227 -141 -363q-140 -136 -370 -136q-196 0 -333 104q-136 103 -193 276l149 45q90 -276 375 -276q164 0 257 99t93 255v813h-770v146h932z" />
    <glyph glyph-name="K" unicode="K" horiz-adv-x="1388" 
d="M1147 0l-553 676l-277 -301v-375h-163v1434h163v-840l768 840h209l-592 -643l646 -791h-201z" />
    <glyph glyph-name="L" unicode="L" horiz-adv-x="1169" 
d="M317 150h795v-150h-958v1434h163v-1284z" />
    <glyph glyph-name="M" unicode="M" horiz-adv-x="1685" 
d="M1376 1434h156v-1434h-162v1153l-526 -745l-527 745v-1153h-163v1434h155l535 -764z" />
    <glyph glyph-name="N" unicode="N" horiz-adv-x="1480" 
d="M1165 1434h162v-1434h-141l-869 1147v-1147h-163v1434h141l870 -1149v1149z" />
    <glyph glyph-name="O" unicode="O" horiz-adv-x="1650" 
d="M825 -27q-315 0 -527 215t-212 533q0 312 212 526q212 213 527 213t527 -213q212 -214 212 -526q0 -315 -212 -532q-212 -216 -527 -216zM824 125h-1q254 0 414 172q161 173 161 424q0 245 -161 417q-161 171 -414 171t-414 -171q-160 -170 -160 -417q0 -251 161 -424
q160 -172 414 -172z" />
    <glyph glyph-name="P" unicode="P" horiz-adv-x="1316" 
d="M786 1434l-1 -2q215 0 342 -141q127 -140 127 -321q0 -183 -128 -322q-128 -138 -348 -138h-463v-510h-161v1434h632zM773 655h-1q147 0 236 93q89 94 89 221q0 126 -89 220q-89 93 -227 93h-467v-627h459z" />
    <glyph glyph-name="Q" unicode="Q" horiz-adv-x="1646" 
d="M1559 721h-1q0 -308 -203 -522l168 -199h-174l-95 111q-194 -137 -432 -138q-311 0 -524 215q-213 214 -213 533q0 313 213 526t525 213q313 0 524 -213q212 -214 212 -526zM822 125h-2q189 0 332 100l-340 396h189l253 -304q140 167 142 404q0 247 -161 417t-414 170
t-415 -170t-162 -417q0 -251 162 -424q162 -172 416 -172z" />
    <glyph glyph-name="R" unicode="R" horiz-adv-x="1384" 
d="M1110 0l-374 562h-420v-563h-161v1434h663q209 0 332 -133q123 -134 123 -303q0 -151 -96 -273t-264 -153l385 -571h-188zM316 1285l1 -578h496q137 0 219 85q83 86 83 204q0 117 -83 203t-218 86h-498z" />
    <glyph glyph-name="S" unicode="S" horiz-adv-x="1353" 
d="M705 -27l-5 -4q-231 0 -403 125q-170 124 -229 305l155 48q50 -143 180 -236q131 -93 306 -93q167 0 270 81q104 81 104 187q0 84 -59 141q-58 57 -203 102l-358 114q-317 102 -317 336q0 156 137 267t342 111q212 0 366 -98t218 -249l-151 -47q-53 116 -165 182
q-113 66 -267 66q-137 0 -225 -67t-88 -160q0 -72 51 -118q50 -45 173 -85l348 -111q184 -58 274 -141q90 -82 90 -232q0 -175 -153 -300q-152 -124 -391 -124z" />
    <glyph glyph-name="T" unicode="T" horiz-adv-x="1284" 
d="M1253 1434v-150h-528v-1284h-164v1284h-530v150h1222z" />
    <glyph glyph-name="U" unicode="U" horiz-adv-x="1449" 
d="M1151 1434h162v-865q0 -270 -157 -433t-433 -163t-433 163t-157 433v865h166v-861q0 -205 110 -327q109 -121 315 -121q205 0 316 122q111 121 111 326v861z" />
    <glyph glyph-name="V" unicode="V" horiz-adv-x="1390" 
d="M1184 1434h176l-578 -1434h-174l-577 1434h176l489 -1231z" />
    <glyph glyph-name="W" unicode="W" horiz-adv-x="2019" 
d="M1819 1434h170l-451 -1434h-170l-358 1167l-359 -1167h-170l-450 1434h170l366 -1203l367 1203h149l367 -1203z" />
    <glyph glyph-name="X" unicode="X" horiz-adv-x="1396" 
d="M1356 0h-199l-459 606l-458 -606h-199l545 723l-533 711h199l446 -594l447 594h198l-532 -711z" />
    <glyph glyph-name="Y" unicode="Y" horiz-adv-x="1335" 
d="M1128 1434h185l-563 -885v-549h-164v549l-563 885h186l459 -732z" />
    <glyph glyph-name="Z" unicode="Z" horiz-adv-x="1280" 
d="M311 147h893v-147h-1120v109l874 1177h-852v148h1076v-111z" />
    <glyph glyph-name="bracketleft" unicode="[" horiz-adv-x="679" 
d="M608 1378h-299v-1517h299v-142h-454v1803h454v-144z" />
    <glyph glyph-name="backslash" unicode="\" horiz-adv-x="1118" 
d="M1036 -186h-143l-811 1804h143z" />
    <glyph glyph-name="bracketright" unicode="]" horiz-adv-x="679" 
d="M526 1522v-1803h-454v142h299v1517h-299v144h454z" />
    <glyph glyph-name="asciicircum" unicode="^" horiz-adv-x="1087" 
d="M1004 856h-166l-293 502l-295 -502h-166l379 639h162z" />
    <glyph glyph-name="underscore" unicode="_" horiz-adv-x="1208" 
d="M88 -268v127h1034v-127h-1034z" />
    <glyph glyph-name="grave" unicode="`" horiz-adv-x="344" 
d="M344 1184h-145l-199 278h182z" />
    <glyph glyph-name="a" unicode="a" horiz-adv-x="1318" 
d="M604 -27h-1q-221 0 -368 154q-147 155 -147 385q0 229 147 382t368 153q268 0 405 -209v184h157v-1022h-157v186q-134 -213 -404 -213zM626 117l-1 -2q160 0 273 113t113 281t-113 281t-272 113q-168 0 -276 -111t-108 -283q0 -170 108 -281t276 -111z" />
    <glyph glyph-name="b" unicode="b" horiz-adv-x="1318" 
d="M715 1047l-1 -1q221 0 368 -153t147 -382q0 -231 -147 -385t-368 -154q-134 0 -238 57t-165 157v-186h-157v1495h157v-657q132 209 404 209zM691 116l-1 -2q168 0 276 111t108 281q0 172 -108 283t-276 111q-161 0 -273 -112t-112 -280q0 -167 113 -280
q112 -112 273 -112z" />
    <glyph glyph-name="c" unicode="c" horiz-adv-x="1181" 
d="M621 -27h5q-229 0 -381 155t-152 386q0 226 152 380q151 153 381 153q182 0 309 -96q128 -96 162 -214l-148 -43q-27 84 -117 147t-208 63q-168 0 -273 -115t-105 -279q0 -162 105 -277t272 -115q121 0 210 60t114 144l148 -39q-35 -121 -162 -216q-127 -94 -312 -94z
" />
    <glyph glyph-name="d" unicode="d" horiz-adv-x="1318" 
d="M1008 1495h157v-1495h-157v186q-134 -213 -405 -213q-221 0 -368 154q-147 155 -147 385q0 229 147 382t368 153q268 0 405 -209v657zM627 117l-1 -2q160 0 273 113t113 281t-113 281t-272 113q-168 0 -276 -111t-108 -283q0 -170 108 -281t276 -111z" />
    <glyph glyph-name="e" unicode="e" horiz-adv-x="1208" 
d="M627 -27q-238 0 -388 147t-150 392q0 228 146 382q145 153 375 153q239 0 375 -145q137 -146 137 -366q0 -50 -4 -74h-872q10 -155 113 -252q102 -96 270 -96q124 0 210 56q85 56 126 141l145 -43q-57 -124 -180 -210q-122 -85 -303 -85zM244 578l720 2q-10 147 -105 237
t-252 90q-151 0 -252 -96q-100 -96 -111 -233z" />
    <glyph glyph-name="f" unicode="f" horiz-adv-x="819" 
d="M424 1153v-131h367v-143h-367v-879h-156v879h-215v143h215v135q0 175 82 270q82 96 240 96q122 0 207 -43l-41 -133q-68 35 -152 33q-180 0 -180 -227z" />
    <glyph glyph-name="g" unicode="g" horiz-adv-x="1314" 
d="M1006 1022l156 -2v-987q0 -213 -141 -352q-140 -139 -365 -139q-336 0 -485 269l139 51q110 -182 348 -182q161 0 252 100q92 100 96 255v174q-134 -197 -402 -197q-223 0 -370 149t-147 369q0 223 147 370t370 147q270 0 402 -195v170zM628 154l-1 -3q160 0 271 108
t111 265q0 160 -111 268t-270 108q-168 0 -276 -105t-108 -269q0 -162 108 -267t276 -105z" />
    <glyph glyph-name="h" unicode="h" 
d="M690 1047v-1q190 0 300 -119t110 -327v-600h-158v578q0 152 -75 236t-213 84q-155 0 -249 -106q-95 -107 -95 -279v-514h-157v1495h157v-653q57 92 155 149q97 57 225 57z" />
    <glyph glyph-name="i" unicode="i" horiz-adv-x="481" 
d="M240 1212l-2 -1q-47 0 -78 31t-31 78q0 44 32 74t77 30q46 0 77 -30q32 -30 32 -73q0 -47 -30 -78t-77 -31zM160 -1v1022h157v-1022h-157z" />
    <glyph glyph-name="j" unicode="j" horiz-adv-x="475" 
d="M235 1212l-2 -1q-48 0 -78 31q-30 32 -30 78q0 44 32 74q31 30 77 30t77 -30q32 -30 32 -73q0 -47 -30 -78t-78 -31zM153 -105l-1 1126h157v-1118q0 -170 -76 -265q-77 -96 -228 -96q-81 0 -168 41l39 131q53 -33 117 -32q160 0 160 213z" />
    <glyph glyph-name="k" unicode="k" horiz-adv-x="1077" 
d="M860 0l-393 471l-156 -162v-309h-157v1495h157v-983l488 510h194l-424 -444l478 -578h-187z" />
    <glyph glyph-name="l" unicode="l" horiz-adv-x="464" 
d="M154 0v1495h157v-1495h-157z" />
    <glyph glyph-name="m" unicode="m" horiz-adv-x="1886" 
d="M1346 1047l-1 -2q185 0 291 -114q107 -115 107 -319v-614h-158v590q0 148 -67 228q-68 81 -198 81q-131 0 -212 -96t-81 -256v-547h-158v590q0 146 -64 228t-187 82q-135 0 -220 -103t-85 -273v-522h-157v1022h157v-168q115 193 340 193q232 0 327 -197q113 197 366 197z
" />
    <glyph glyph-name="n" unicode="n" 
d="M690 1047v-1q190 0 300 -119t110 -327v-600h-158v578q0 152 -75 236t-213 84q-155 0 -249 -106q-95 -107 -95 -279v-514h-157v1022h157v-180q57 92 155 149q97 57 225 57z" />
    <glyph glyph-name="o" unicode="o" horiz-adv-x="1255" 
d="M628 -27h-1q-231 0 -386 155q-154 154 -154 384q0 229 155 382t386 153t384 -153t153 -382q0 -230 -153 -384q-153 -155 -384 -155zM627 119l-1 -2q164 0 273 111q110 112 110 279q0 169 -109 281q-110 113 -273 113q-166 0 -277 -112q-111 -113 -111 -280
q0 -168 111 -279t277 -111z" />
    <glyph glyph-name="p" unicode="p" horiz-adv-x="1318" 
d="M715 1047l-1 -1q221 0 368 -153t147 -382q0 -231 -147 -385t-368 -154q-134 0 -238 57t-165 157v-616h-157v1452h157v-184q132 209 404 209zM691 116l-1 -2q168 0 276 111t108 281q0 172 -108 283t-276 111q-161 0 -273 -112t-112 -280q0 -167 113 -280
q112 -112 273 -112z" />
    <glyph glyph-name="q" unicode="q" horiz-adv-x="1318" 
d="M1008 1022h157v-1452h-157v616q-134 -213 -405 -213q-221 0 -368 154q-147 155 -147 385q0 229 147 382t368 153q268 0 405 -209v184zM627 117l-1 -2q160 0 273 113t113 281t-113 281t-272 113q-168 0 -276 -111t-108 -283q0 -170 108 -281t276 -111z" />
    <glyph glyph-name="r" unicode="r" horiz-adv-x="724" 
d="M311 846h1q47 104 141 155q95 51 225 32v-147q-173 23 -270 -76q-97 -98 -97 -333v-477h-157v1022h157v-176z" />
    <glyph glyph-name="s" unicode="s" horiz-adv-x="1044" 
d="M528 -27l-2 -5q-170 0 -300 90q-130 89 -169 221l148 41q29 -92 117 -152t207 -60q114 0 185 49q72 49 72 120q0 59 -34 90t-114 57l-291 86q-239 70 -237 249q0 116 108 202q107 85 266 85q157 0 271 -72t162 -182l-144 -43q-29 71 -106 117q-79 47 -184 47
q-95 0 -156 -47q-60 -46 -60 -104q0 -82 137 -123l291 -86q116 -34 183 -95q66 -60 66 -170q0 -135 -118 -225t-298 -90z" />
    <glyph glyph-name="t" unicode="t" horiz-adv-x="837" 
d="M715 166l43 -135q-104 -45 -213 -45q-150 0 -225 87t-75 238v568h-203v143h203v352h157v-352h351v-143h-351v-568q0 -180 166 -180q75 0 147 35z" />
    <glyph glyph-name="u" unicode="u" 
d="M932 1022l158 -2v-1022h-158v178q-124 -205 -377 -205q-193 0 -303 119q-109 118 -109 330v600h158v-578q0 -152 75 -236t212 -84q155 0 250 107q94 106 94 279v514z" />
    <glyph glyph-name="v" unicode="v" horiz-adv-x="1107" 
d="M915 1022h170l-444 -1022h-174l-444 1022h170l362 -850z" />
    <glyph glyph-name="w" unicode="w" horiz-adv-x="1574" 
d="M1386 1022h164l-350 -1022h-153l-259 786l-260 -786h-153l-352 1022h165l269 -821l262 821h137l262 -821z" />
    <glyph glyph-name="x" unicode="x" horiz-adv-x="1071" 
d="M1049 0h-189l-323 410l-326 -410h-188l407 516l-387 506h184l310 -397l307 397h184l-387 -506z" />
    <glyph glyph-name="y" unicode="y" horiz-adv-x="1118" 
d="M928 1022h168l-629 -1452h-166l195 450l-473 1002h174l378 -825z" />
    <glyph glyph-name="z" unicode="z" horiz-adv-x="1056" 
d="M307 137h660v-137h-875v104l643 781h-631v137h844v-109z" />
    <glyph glyph-name="braceleft" unicode="{" horiz-adv-x="772" 
d="M485 868v-1q0 -203 -153 -246q155 -47 153 -248v-344q0 -179 156 -181h59v-139h-90q-276 0 -276 301v363q0 78 -49 127t-129 49h-43v143h43q80 0 129 48t49 128v361q0 303 276 303h90v-141h-59q-156 0 -156 -181v-342z" />
    <glyph glyph-name="bar" unicode="|" horiz-adv-x="430" 
d="M143 -256v1905h144v-1905h-144z" />
    <glyph glyph-name="braceright" unicode="}" horiz-adv-x="772" 
d="M616 692h43v-143h-43q-80 0 -129 -49t-49 -127v-363q0 -301 -276 -301h-90v139h59q156 0 156 181v344q0 201 153 248q-154 45 -153 247v342q0 180 -156 181h-59v141h90q276 0 276 -303v-361q0 -80 49 -128t129 -48z" />
    <glyph glyph-name="asciitilde" unicode="~" horiz-adv-x="1206" 
d="M264 582l-138 40q0 106 60 177t185 71q80 0 164 -42l158 -82q73 -40 126 -40q123 0 123 151l141 -41q0 -106 -59 -180q-58 -73 -182 -73q-82 0 -168 42q-77 38 -159 83q-74 41 -126 41q-125 0 -125 -147z" />
    <glyph glyph-name="exclamdown" unicode="&#xa1;" horiz-adv-x="454" 
d="M227 1034v-3q50 0 82 -31q33 -32 33 -81q0 -47 -33 -78q-34 -32 -82 -32t-82 32q-33 31 -33 80t33 81q34 32 82 32zM289 624l24 -1039h-180l27 1039h129z" />
    <glyph glyph-name="cent" unicode="&#xa2;" horiz-adv-x="1177" 
d="M625 322v-1q121 0 210 60t114 144l148 -41q-32 -110 -139 -198q-108 -89 -268 -105v-215h-139v215q-201 27 -330 176t-129 360q0 208 128 356t330 173v217h139v-217q157 -16 267 -108t141 -198l-148 -43q-27 83 -117 146t-208 63q-166 0 -271 -114t-105 -278
q0 -162 105 -277t272 -115z" />
    <glyph glyph-name="sterling" unicode="&#xa3;" horiz-adv-x="1323" 
d="M453 152h790v-152h-1147v152h195v444h-158v135h158v326q0 194 113 301q112 106 300 106q179 0 294 -100q116 -100 144 -246l-144 -41q-68 240 -297 240q-119 0 -183 -70q-65 -71 -65 -198v-318h522v-135h-522v-444z" />
    <glyph glyph-name="currency" unicode="&#xa4;" horiz-adv-x="1261" 
d="M1110 655v1q0 -163 -94 -288l164 -164l-97 -97l-159 164q-129 -96 -293 -96q-167 0 -291 96l-162 -164l-96 97l164 164q-92 130 -92 288q0 164 94 291l-166 162l96 96l164 -164q123 96 289 96q167 0 291 -97l161 164l97 -96l-164 -162q94 -127 94 -291zM295 656v1
q0 -144 96 -240t240 -96q143 0 241 96q97 96 99 239q-1 142 -99 240t-241 98q-144 0 -240 -97t-96 -241z" />
    <glyph glyph-name="yen" unicode="&#xa5;" horiz-adv-x="1372" 
d="M1331 1434l-495 -779h360v-108h-428v-137h428v-109h-428v-301h-164v301h-422v109h422v137h-422v108h355l-496 779h184l461 -734l461 734h184z" />
    <glyph glyph-name="brokenbar" unicode="&#xa6;" horiz-adv-x="430" 
d="M143 911v738h144v-738h-144zM143 -256v737h144v-737h-144z" />
    <glyph glyph-name="section" unicode="&#xa7;" horiz-adv-x="1132" 
d="M872 412l-2 -3q117 -77 117 -205q0 -133 -117 -226t-300 -93q-163 0 -293 89q-128 88 -166 218l145 43q31 -94 120 -154q88 -60 207 -60q109 1 180 54t71 119q0 56 -34 84q-36 29 -117 56l-301 98q-252 78 -252 275q0 78 50 146t122 107q-115 76 -115 204q0 122 109 207
q110 86 270 86q146 0 252 -67q107 -68 150 -175l-144 -41q-28 66 -95 108q-66 42 -163 42q-110 2 -168 -49t-58 -105q0 -91 139 -143l293 -98q121 -40 185 -101q63 -60 63 -171q-2 -142 -148 -245zM453 554l280 -88q127 78 127 182q0 59 -34 92t-114 60l-279 94
q-67 -28 -108 -78q-40 -49 -40 -100q0 -116 168 -162z" />
    <glyph glyph-name="dieresis" unicode="&#xa8;" horiz-adv-x="571" 
d="M96 1178v-1q-41 0 -68 27t-27 68t27 68t68 27q40 0 69 -27q28 -27 28 -67q0 -41 -28 -68q-29 -27 -69 -27zM475 1177v-1q-43 0 -70 27t-27 68t27 68t70 27q41 0 68 -27t27 -67q0 -41 -27 -68t-68 -27z" />
    <glyph glyph-name="copyright" unicode="&#xa9;" horiz-adv-x="1546" 
d="M774 33h-3q-293 0 -491 198t-198 489q0 286 200 483t491 197q293 0 491 -195t198 -484q0 -292 -198 -490t-490 -198zM771 141h-2q246 0 412 166t166 414q0 246 -166 408q-167 162 -412 162t-412 -162q-166 -162 -166 -408q0 -247 167 -414q166 -166 413 -166zM777 365
l-2 1q-151 0 -252 101t-101 252q0 147 102 248q103 101 251 101q125 0 210 -63t114 -153l-115 -27q-18 58 -75 95q-58 38 -133 38q-106 0 -172 -69t-66 -169q0 -102 66 -173t172 -71q77 0 135 38q57 37 75 95l113 -30q-27 -87 -113 -151q-86 -63 -209 -63z" />
    <glyph glyph-name="guillemotleft" unicode="&#xab;" horiz-adv-x="964" 
d="M510 1014l-205 -359l205 -358h-160l-207 358l207 359h160zM821 1014l-205 -359l205 -358h-157l-209 358l209 359h157z" />
    <glyph glyph-name="logicalnot" unicode="&#xac;" horiz-adv-x="1163" 
d="M1020 899v-430h-141v297h-736v133h877z" />
    <glyph glyph-name="registered" unicode="&#xae;" horiz-adv-x="1546" 
d="M774 1401l-1 -4q294 0 491 -196q198 -196 198 -487q0 -290 -198 -487q-197 -196 -490 -196q-292 0 -491 197q-198 197 -198 488q0 292 198 488q199 197 491 197zM773 133q248 0 413 166q165 167 165 414q0 248 -165 413t-413 165t-413 -165t-165 -413q0 -247 165 -414
q165 -166 413 -166zM1070 836l-2 -2q0 -67 -41 -125q-40 -56 -114 -79l162 -256h-133l-151 246h-162v-246h-115v680h328q102 0 165 -66t63 -152zM628 946l1 -226h205q53 0 86 33t33 80t-33 80t-85 33h-207z" />
    <glyph glyph-name="macron" unicode="&#xaf;" horiz-adv-x="538" 
d="M0 1212v123h539v-123h-539z" />
    <glyph glyph-name="degree" unicode="&#xb0;" horiz-adv-x="821" 
d="M411 887h-1q-137 0 -232 93t-95 226q0 135 95 228q94 93 233 93q137 0 232 -93q94 -93 94 -228q0 -133 -94 -226q-95 -93 -232 -93zM410 1008q84 0 141 58t57 141q2 84 -55 141t-143 57t-143 -57t-57 -141q0 -83 57 -141t143 -58z" />
    <glyph glyph-name="plusminus" unicode="&#xb1;" horiz-adv-x="1132" 
d="M635 920h354v-134h-354v-307h-135v307h-357v134h357v305h135v-305zM143 211v133h846v-133h-846z" />
    <glyph glyph-name="uni00B2" unicode="&#xb2;" horiz-adv-x="694" 
d="M244 1036l393 -1v-114h-592v88l328 313q59 56 88 98q27 39 27 84q0 63 -39 102t-111 39q-137 0 -170 -154l-121 33q14 98 93 167t196 69q129 0 208 -67t79 -184q0 -72 -36 -126q-35 -53 -110 -123z" />
    <glyph glyph-name="uni00B3" unicode="&#xb3;" horiz-adv-x="716" 
d="M434 1425l-1 1q102 -12 165 -81t63 -169q0 -115 -83 -195q-82 -79 -212 -79q-139 0 -220 72q-80 71 -100 174l117 33q12 -73 66 -119q55 -47 131 -47q81 0 128 46q48 47 48 114q0 68 -46 113t-132 45q-21 0 -57 -4l-20 78l194 221h-403v113h561v-94z" />
    <glyph glyph-name="acute" unicode="&#xb4;" horiz-adv-x="344" 
d="M0 1184l164 278h180l-199 -278h-145z" />
    <glyph glyph-name="paragraph" unicode="&#xb6;" horiz-adv-x="1320" 
d="M1184 1434l-1 -150h-131v-1714h-150v1714h-260v-1714h-151v1046q-176 0 -293 117t-117 289q0 175 121 293q122 119 300 119h682z" />
    <glyph glyph-name="periodcentered" unicode="&#xb7;" horiz-adv-x="454" 
d="M227 481q-49 0 -82 33t-33 80t33 80t82 33t82 -33t33 -80t-33 -80t-82 -33z" />
    <glyph glyph-name="cedilla" unicode="&#xb8;" horiz-adv-x="428" 
d="M207 -455l-2 2q-119 0 -207 66l27 90q95 -66 186 -54q92 12 92 78q0 53 -69 72t-142 3l64 199h127l-37 -119q82 -6 132 -51q49 -45 49 -111q0 -82 -63 -129q-62 -46 -157 -46z" />
    <glyph glyph-name="uni00B9" unicode="&#xb9;" horiz-adv-x="497" 
d="M268 1741h111v-819h-127v671l-205 -98l-31 113z" />
    <glyph glyph-name="guillemotright" unicode="&#xbb;" horiz-adv-x="964" 
d="M303 1014l207 -359l-207 -358h-160l205 358l-205 359h160zM614 1014l207 -359l-207 -358h-159l204 358l-204 359h159z" />
    <glyph glyph-name="onequarter" unicode="&#xbc;" horiz-adv-x="1589" 
d="M252 614v672l-205 -98l-31 112l252 134h111v-820h-127zM1071 1434h133l-895 -1434h-133zM1554 287v-115h-106v-172h-123v172h-416v100l295 547h137l-284 -532h268v182h123v-182h106z" />
    <glyph glyph-name="onehalf" unicode="&#xbd;" horiz-adv-x="1576" 
d="M252 614v672l-205 -98l-31 112l252 134h111v-820h-127zM1071 1434h133l-895 -1434h-133zM1126 115h397v-115h-592v88l327 313q59 56 88 98q27 39 27 84q0 64 -40 101q-41 38 -111 38q-137 0 -170 -154l-121 33q13 97 93 168q79 70 196 70q130 0 207 -67q78 -68 78 -184
q0 -72 -36 -126t-109 -124z" />
    <glyph glyph-name="threequarters" unicode="&#xbe;" horiz-adv-x="1808" 
d="M662 868l-1 -4q0 -115 -83 -193q-82 -78 -212 -78q-139 0 -220 72t-100 175l117 32q12 -71 66 -118q53 -46 131 -46q81 0 128 46q48 46 48 114t-46 113t-132 45q-21 0 -57 -4l-20 78l194 221h-403v113h561v-95l-199 -221q102 -12 165 -81t63 -169zM1289 1430h133
l-895 -1434h-133zM1773 283v-115h-107v-172h-123v172h-416v100l295 547h138l-285 -532h268v182h123v-182h107z" />
    <glyph glyph-name="questiondown" unicode="&#xbf;" horiz-adv-x="1107" 
d="M565 1034v-3q50 0 82 -31q33 -32 33 -81q0 -47 -33 -78q-34 -32 -82 -32t-82 32q-33 31 -33 80t33 81q34 32 82 32zM639 624l2 -3q0 -103 -40 -186q-41 -86 -97 -137l-112 -101q-56 -49 -96 -106q-40 -58 -40 -126q0 -115 78 -187t207 -72q131 0 216 75t117 204l144 -41
q-34 -166 -158 -276q-122 -109 -323 -109q-195 0 -320 113t-125 288q0 90 41 164t99 125l116 101q58 50 98 120q41 71 41 154h152z" />
    <glyph glyph-name="Agrave" unicode="&#xc0;" horiz-adv-x="1423" 
d="M801 1595h-146l-198 279h182zM1227 0l-156 385h-719l-155 -385h-174l587 1434h203l588 -1434h-174zM412 532h600l-299 738z" />
    <glyph glyph-name="Aacute" unicode="&#xc1;" horiz-adv-x="1423" 
d="M965 1874l-199 -279h-145l163 279h181zM1227 0l-156 385h-719l-155 -385h-174l587 1434h203l588 -1434h-174zM412 532h600l-299 738z" />
    <glyph glyph-name="Acircumflex" unicode="&#xc2;" horiz-adv-x="1423" 
d="M711 1778l-144 -187h-161l221 271h166l223 -271h-160zM1227 0l-156 385h-719l-155 -385h-174l587 1434h203l588 -1434h-174zM412 532h600l-299 738z" />
    <glyph glyph-name="Atilde" unicode="&#xc3;" horiz-adv-x="1423" 
d="M578 1722h1q-55 0 -57 -114h-119q0 121 41.5 181t124.5 59q63 0 152 -61t123 -61q55 0 55 115h121q0 -120 -41.5 -180t-124.5 -59q-61 0 -151 60t-125 60zM1228 0l-156 385h-719l-155 -385h-174l587 1434h203l588 -1434h-174zM413 532h600l-299 738z" />
    <glyph glyph-name="Adieresis" unicode="&#xc4;" horiz-adv-x="1423" 
d="M522 1589v-1q-41 0 -68 28t-27 69t27 68t68 27t68 -27t27 -67t-27 -69q-27 -28 -68 -28zM901 1588v-1q-43 0 -70 28q-27 29 -27 69q0 41 27 68t70 27q41 0 68 -27t27 -67q0 -41 -27 -69t-68 -28zM1227 -2l-156 385h-719l-155 -385h-174l587 1434h203l588 -1434h-174z
M412 530h600l-299 738z" />
    <glyph glyph-name="Aring" unicode="&#xc5;" horiz-adv-x="1423" 
d="M711 1542h-2q-96 0 -162 63t-66 158t66 158t163 63q98 0 164 -63t66 -158t-66 -158t-163 -63zM709 1878l-3 -2q-53 0 -84 -31q-32 -32 -32 -83t32 -83q31 -31 86 -31t87 32t32 83q0 52 -31 83q-32 32 -87 32zM1222 -2l-156 385h-719l-155 -385h-174l587 1434h203
l588 -1434h-174zM407 530h600l-299 738z" />
    <glyph glyph-name="AE" unicode="&#xc6;" horiz-adv-x="1996" 
d="M1884 1284h-749v-483h645v-144h-645v-507h747v-150h-907v387h-537l-233 -387h-182l872 1434h989v-150zM528 535h447v739z" />
    <glyph glyph-name="Ccedilla" unicode="&#xc7;" horiz-adv-x="1597" 
d="M827 127l-3 -2q187 0 323 88q137 89 192 229l156 -41q-63 -173 -224 -292q-160 -118 -380 -135l-29 -94q82 -6 132 -51q49 -45 49 -111q0 -82 -63 -129q-62 -46 -158 -46q-118 0 -207 66l27 90q94 -66 187 -54t93 78q0 53 -69 72t-142 3l55 174q-295 22 -487 234
t-192 513q0 313 213 526t528 213q247 0 426 -121q181 -122 248 -310l-160 -39q-55 139 -192 229q-136 90 -324 90q-253 0 -415 -170q-162 -169 -162 -414q0 -250 161 -423t417 -173z" />
    <glyph glyph-name="Egrave" unicode="&#xc8;" horiz-adv-x="1275" 
d="M741 1595h-145l-199 279h183zM1163 1284h-848v-483h744v-144h-744v-507h846v-150h-1007v1434h1009v-150z" />
    <glyph glyph-name="Eacute" unicode="&#xc9;" horiz-adv-x="1275" 
d="M905 1874l-198 -279h-146l164 279h180zM1163 1284h-848v-483h744v-144h-744v-507h846v-150h-1007v1434h1009v-150z" />
    <glyph glyph-name="Ecircumflex" unicode="&#xca;" horiz-adv-x="1275" 
d="M651 1778l-143 -187h-162l221 271h166l223 -271h-159zM1163 1284h-848v-483h744v-144h-744v-507h846v-150h-1007v1434h1009v-150z" />
    <glyph glyph-name="Edieresis" unicode="&#xcb;" horiz-adv-x="1275" 
d="M463 1589v-1q-41 0 -68 28t-27 69t27 68t68 27t68 -27t27 -67t-27 -69q-27 -28 -68 -28zM842 1588v-1q-43 0 -70 28q-27 29 -27 69q0 41 27 68t70 27q41 0 68 -27t27 -67q0 -41 -27 -69t-68 -28zM1163 1282h-848v-483h744v-144h-744v-507h846v-150h-1007v1434h1009v-150z
" />
    <glyph glyph-name="Igrave" unicode="&#xcc;" horiz-adv-x="471" 
d="M326 1595h-146l-198 279h182zM154 0v1434h163v-1434h-163z" />
    <glyph glyph-name="Iacute" unicode="&#xcd;" horiz-adv-x="471" 
d="M147 1595l164 279h181l-199 -279h-146zM154 0v1434h163v-1434h-163z" />
    <glyph glyph-name="Icircumflex" unicode="&#xce;" horiz-adv-x="471" 
d="M319 1862l224 -271h-160l-145 187l-144 -187h-162l222 271h165zM154 0v1434h163v-1434h-163z" />
    <glyph glyph-name="Idieresis" unicode="&#xcf;" horiz-adv-x="471" 
d="M47 1589v-1q-41 0 -68 28t-27 69t27 68t68 27t68 -27t27 -67t-27 -69q-27 -28 -68 -28zM426 1588v-1q-43 0 -70 28q-27 29 -27 69q0 41 27 68t70 27q41 0 68 -27t27 -67q0 -41 -27 -69t-68 -28zM154 -2v1434h163v-1434h-163z" />
    <glyph glyph-name="Eth" unicode="&#xd0;" horiz-adv-x="1552" 
d="M762 1434h-1q326 0 515 -201t189 -516t-189 -516t-514 -201h-545v645h-145v141h145v648h545zM759 150v2q254 0 398 159t144 411q0 246 -144 405t-398 159h-381v-500h444v-141h-444v-495h381z" />
    <glyph glyph-name="Ntilde" unicode="&#xd1;" horiz-adv-x="1480" 
d="M608 1722h-2q-55 0 -55 -114h-119q0 121 41.5 181t124.5 59q63 0 152 -61t122 -61q56 0 57 115h121q0 -120 -41.5 -180t-124.5 -59q-61 0 -151 60t-125 60zM1163 1434h162v-1434h-141l-869 1147v-1147h-163v1434h141l870 -1149v1149z" />
    <glyph glyph-name="Ograve" unicode="&#xd2;" horiz-adv-x="1650" 
d="M915 1595h-145l-199 279h183zM825 -27q-315 0 -527 215t-212 533q0 312 212 526q212 213 527 213t527 -213q212 -214 212 -526q0 -315 -212 -532q-212 -216 -527 -216zM824 125h-1q254 0 414 172q161 173 161 424q0 245 -161 417q-161 171 -414 171t-414 -171
q-160 -170 -160 -417q0 -251 161 -424q160 -172 414 -172z" />
    <glyph glyph-name="Oacute" unicode="&#xd3;" horiz-adv-x="1650" 
d="M735 1595l164 279h180l-198 -279h-146zM825 -27q-315 0 -527 215t-212 533q0 312 212 526q212 213 527 213t527 -213q212 -214 212 -526q0 -315 -212 -532q-212 -216 -527 -216zM824 125h-1q254 0 414 172q161 173 161 424q0 245 -161 417q-161 171 -414 171t-414 -171
q-160 -170 -160 -417q0 -251 161 -424q160 -172 414 -172z" />
    <glyph glyph-name="Ocircumflex" unicode="&#xd4;" horiz-adv-x="1650" 
d="M827 1778l-143 -187h-162l221 271h166l224 -271h-160zM825 1460q315 0 527 -213q212 -214 212 -526q0 -315 -212 -532q-212 -216 -527 -216t-527 215t-212 533q0 312 212 526q212 213 527 213zM824 125h-1q254 0 414 172q161 173 161 424q0 245 -161 417
q-161 171 -414 171t-414 -171q-160 -170 -160 -417q0 -251 161 -424q160 -172 414 -172z" />
    <glyph glyph-name="Otilde" unicode="&#xd5;" horiz-adv-x="1650" 
d="M969 1602h-2q-61 0 -151 60t-125 60q-55 0 -55 -114h-119q0 121 41.5 181t124.5 59q63 0 152 -61t122 -61q56 0 57 115h121q0 -239 -166 -239zM823 -27q-315 0 -527 215t-212 533q0 312 212 526q212 213 527 213t527 -213q212 -214 212 -526q0 -315 -212 -532
q-212 -216 -527 -216zM822 125h-1q254 0 414 172q161 173 161 424q0 245 -161 417q-161 171 -414 171t-414 -171q-160 -170 -160 -417q0 -251 161 -424q160 -172 414 -172z" />
    <glyph glyph-name="Odieresis" unicode="&#xd6;" horiz-adv-x="1650" 
d="M637 1589v-1q-41 0 -68 28t-27 69t27 68t68 27t68 -27t27 -67t-27 -69q-27 -28 -68 -28zM1016 1588v-1q-43 0 -70 28q-27 29 -27 69q0 41 27 68t70 27q41 0 68 -27t27 -67q0 -41 -27 -69t-68 -28zM825 -29q-315 0 -527 215t-212 533q0 312 212 526q212 213 527 213
t527 -213q212 -214 212 -526q0 -315 -212 -532q-212 -216 -527 -216zM824 123h-1q254 0 414 172q161 173 161 424q0 245 -161 417q-161 171 -414 171t-414 -171q-160 -170 -160 -417q0 -251 161 -424q160 -172 414 -172z" />
    <glyph glyph-name="multiply" unicode="&#xd7;" horiz-adv-x="1030" 
d="M887 997l-279 -278l277 -277l-92 -96l-277 279l-276 -277l-97 94l279 277l-277 276l93 95l276 -277l279 277z" />
    <glyph glyph-name="Oslash" unicode="&#xd8;" horiz-adv-x="1650" 
d="M1307 1290l-1 -1q121 -101 190 -249q69 -147 69 -319q0 -315 -212 -532q-211 -216 -528 -216q-206 0 -375 97l-68 -97h-133l110 158q-129 102 -201 256q-72 155 -72 334q0 312 212 526q212 213 527 213q214 0 392 -106l73 106h135zM249 720l-1 1q0 -289 201 -462l677 967
q-133 82 -303 82q-253 0 -414 -171q-160 -170 -160 -417zM823 125l1 -1q254 0 414 172q161 173 161 424q0 269 -184 441l-678 -964q131 -72 286 -72z" />
    <glyph glyph-name="Ugrave" unicode="&#xd9;" horiz-adv-x="1449" 
d="M815 1595h-145l-199 279h182zM1151 1434h162v-865q0 -270 -157 -433t-433 -163t-433 163t-157 433v865h166v-861q0 -205 110 -327q109 -121 315 -121q205 0 316 122q111 121 111 326v861z" />
    <glyph glyph-name="Uacute" unicode="&#xda;" horiz-adv-x="1449" 
d="M979 1874l-199 -279h-145l164 279h180zM1151 1434h162v-865q0 -270 -157 -433t-433 -163t-433 163t-157 433v865h166v-861q0 -205 110 -327q109 -121 315 -121q205 0 316 122q111 121 111 326v861z" />
    <glyph glyph-name="Ucircumflex" unicode="&#xdb;" horiz-adv-x="1449" 
d="M725 1778l-143 -187h-162l221 271h166l223 -271h-160zM1151 1434h162v-865q0 -270 -157 -433t-433 -163t-433 163t-157 433v865h166v-861q0 -205 110 -327q109 -121 315 -121q205 0 316 122q111 121 111 326v861z" />
    <glyph glyph-name="Udieresis" unicode="&#xdc;" horiz-adv-x="1449" 
d="M537 1589v-1q-41 0 -69 28t-28 69t28 68t69 27t68 -27t27 -67t-27 -69q-27 -28 -68 -28zM915 1588v-1q-43 0 -70 28q-27 29 -27 69q0 41 27 68t70 27q41 0 69 -27t28 -67q0 -41 -28 -69t-69 -28zM1151 1432h162v-865q0 -270 -157 -433t-433 -163t-433 163t-157 433v865
h166v-861q0 -205 110 -327q109 -121 315 -121q205 0 316 122q111 121 111 326v861z" />
    <glyph glyph-name="Yacute" unicode="&#xdd;" horiz-adv-x="1335" 
d="M924 1874l-199 -279h-145l163 279h181zM1128 1434h185l-563 -885v-549h-164v549l-563 885h186l459 -732z" />
    <glyph glyph-name="Thorn" unicode="&#xde;" horiz-adv-x="1316" 
d="M786 1200l-1 -1q215 0 342 -141q127 -140 127 -322q0 -181 -128 -321q-127 -139 -348 -139h-463v-276h-161v1434h161v-234h471zM773 423l-1 -1q147 0 236 93q89 94 89 220q0 128 -88 222q-89 95 -228 95h-467v-629h459z" />
    <glyph glyph-name="germandbls" unicode="&#xdf;" horiz-adv-x="1208" 
d="M834 811h-3q130 -44 204 -142q75 -99 75 -244q0 -201 -133 -313t-357 -112h-140v143h138q156 0 245 77t89 210q0 136 -84 213q-83 76 -233 76h-109v133h45q132 0 214 74q81 74 81 195q0 113 -73 183q-74 71 -192 71q-145 0 -223 -93t-78 -259v-1022h-158v1022
q0 224 122 360q122 135 333 135q184 0 306 -110q121 -109 121 -282q0 -221 -190 -315z" />
    <glyph glyph-name="agrave" unicode="&#xe0;" horiz-adv-x="1318" 
d="M721 1184h-146l-198 278h182zM604 -27h-1q-221 0 -368 154q-147 155 -147 385q0 229 147 382t368 153q268 0 405 -209v184h157v-1022h-157v186q-134 -213 -404 -213zM626 117l-1 -2q160 0 273 113t113 281t-113 281t-272 113q-168 0 -276 -111t-108 -283q0 -170 108 -281
t276 -111z" />
    <glyph glyph-name="aacute" unicode="&#xe1;" horiz-adv-x="1318" 
d="M541 1184l164 278h180l-199 -278h-145zM604 -27h-1q-221 0 -368 154q-147 155 -147 385q0 229 147 382t368 153q268 0 405 -209v184h157v-1022h-157v186q-134 -213 -404 -213zM626 117l-1 -2q160 0 273 113t113 281t-113 281t-272 113q-168 0 -276 -111t-108 -283
q0 -170 108 -281t276 -111z" />
    <glyph glyph-name="acircumflex" unicode="&#xe2;" horiz-adv-x="1318" 
d="M631 1366l-144 -186h-161l221 270h166l223 -270h-160zM1008 1022h157v-1022h-157v186q-134 -213 -405 -213q-221 0 -368 154q-147 155 -147 385q0 229 147 382t368 153q268 0 405 -209v184zM627 117l-1 -2q160 0 273 113t113 281t-113 281t-272 113q-168 0 -276 -111
t-108 -283q0 -170 108 -281t276 -111z" />
    <glyph glyph-name="atilde" unicode="&#xe3;" horiz-adv-x="1318" 
d="M774 1190q-61 0 -151 60t-124 60q-56 0 -57 -115h-118q0 242 165 242q63 0 152 -61t123 -61q55 0 55 115h121q0 -240 -166 -240zM604 -27h-1q-221 0 -368 154q-147 155 -147 385q0 229 147 382t368 153q268 0 405 -209v184h157v-1022h-157v186q-134 -213 -404 -213z
M626 117l-1 -2q160 0 273 113t113 281t-113 281t-272 113q-168 0 -276 -111t-108 -283q0 -170 108 -281t276 -111z" />
    <glyph glyph-name="adieresis" unicode="&#xe4;" horiz-adv-x="1318" 
d="M442 1178v-1q-41 0 -68 27t-27 68t27 68t68 27q40 0 69 -27q28 -27 28 -67q0 -41 -28 -68q-29 -27 -69 -27zM821 1177v-1q-43 0 -70 27t-27 68t27 68t70 27q41 0 69 -27t28 -67q0 -41 -28 -68t-69 -27zM604 -29h-1q-221 0 -368 154q-147 155 -147 385q0 229 147 382
t368 153q268 0 405 -209v184h157v-1022h-157v186q-134 -213 -404 -213zM626 115l-1 -2q160 0 273 113t113 281t-113 281t-272 113q-168 0 -276 -111t-108 -283q0 -170 108 -281t276 -111z" />
    <glyph glyph-name="aring" unicode="&#xe5;" horiz-adv-x="1318" 
d="M631 1130h-1q-96 0 -162 63t-66 158t66 158t162 63q98 0 164 -63t66 -158t-66 -158t-163 -63zM630 1237v-2q55 0 87 32t32 83t-32 83t-87 32q-53 0 -84 -31q-32 -32 -32 -83t32 -83q31 -31 84 -31zM603 -29h-1q-221 0 -368 154q-147 155 -147 385q0 229 147 382t368 153
q268 0 405 -209v184h157v-1022h-157v186q-133 -213 -404 -213zM625 115l-1 -2q160 0 273 113t113 281t-113 281t-272 113q-168 0 -276 -111t-108 -283q0 -170 108 -281t276 -111z" />
    <glyph glyph-name="ae" unicode="&#xe6;" horiz-adv-x="2131" 
d="M2046 528q0 -28 -4 -75h-873q13 -154 117 -247t257 -93q112 0 195 47q81 46 121 119l145 -43q-58 -116 -173 -190q-113 -73 -280 -73q-264 0 -397 205v-178h-147v186q-133 -213 -405 -213q-221 0 -368 154q-147 155 -147 385q0 229 147 382t368 153q268 0 405 -209v184
h147v-182q135 207 389 207q229 0 366 -147q137 -148 137 -372zM1167 571l726 1q-11 150 -105 243t-252 93q-152 0 -255 -99q-104 -99 -114 -238zM628 116l-1 -2q160 0 273 113t113 281t-113 281t-272 113q-168 0 -276 -111t-108 -283q0 -170 108 -281t276 -111z" />
    <glyph glyph-name="ccedilla" unicode="&#xe7;" horiz-adv-x="1181" 
d="M621 117l2 1q121 0 210 60t114 144l148 -39q-32 -110 -139 -198q-108 -89 -264 -108l-30 -96q82 -6 132 -51q49 -45 49 -111q0 -83 -63 -129q-62 -46 -157 -46q-119 0 -207 66l26 90q94 -66 187 -54t93 78q0 52 -69 72q-69 19 -142 3l55 174q-208 20 -341 171
q-134 152 -134 369q0 226 152 380q151 153 381 153q182 0 309 -96q128 -96 162 -214l-148 -43q-27 84 -117 147t-208 63q-168 0 -273 -115q-105 -116 -105 -279q0 -161 105 -277q105 -115 272 -115z" />
    <glyph glyph-name="egrave" unicode="&#xe8;" horiz-adv-x="1208" 
d="M702 1184h-145l-199 278h183zM627 -27q-238 0 -388 147t-150 392q0 228 146 382q145 153 375 153q239 0 375 -145q137 -146 137 -366q0 -50 -4 -74h-872q10 -155 113 -252q102 -96 270 -96q124 0 210 56q85 56 126 141l145 -43q-57 -124 -180 -210q-122 -85 -303 -85z
M244 578l720 2q-10 147 -105 237t-252 90q-151 0 -252 -96q-100 -96 -111 -233z" />
    <glyph glyph-name="eacute" unicode="&#xe9;" horiz-adv-x="1208" 
d="M522 1184l164 278h180l-198 -278h-146zM627 -27q-238 0 -388 147t-150 392q0 228 146 382q145 153 375 153q239 0 375 -145q137 -146 137 -366q0 -50 -4 -74h-872q10 -155 113 -252q102 -96 270 -96q124 0 210 56q85 56 126 141l145 -43q-57 -124 -180 -210
q-122 -85 -303 -85zM244 578l720 2q-10 147 -105 237t-252 90q-151 0 -252 -96q-100 -96 -111 -233z" />
    <glyph glyph-name="ecircumflex" unicode="&#xea;" horiz-adv-x="1208" 
d="M612 1366l-143 -186h-162l221 270h166l224 -270h-160zM1120 535q0 -50 -4 -74h-872q10 -155 113 -252q102 -96 270 -96q124 0 210 56q85 55 126 141l145 -43q-57 -125 -180 -210q-122 -85 -303 -85q-238 0 -388 147t-150 392q0 228 146 382q145 153 375 153
q239 0 375 -145q137 -146 137 -366zM244 578l720 2q-10 147 -105 237t-252 90q-151 0 -252 -96q-100 -96 -111 -233z" />
    <glyph glyph-name="edieresis" unicode="&#xeb;" horiz-adv-x="1208" 
d="M422 1178v-1q-41 0 -68 27t-27 68t27 68t68 27t68 -27t27 -67q0 -41 -27 -68t-68 -27zM801 1177v-1q-43 0 -70 27t-27 68t27 68t70 27q41 0 68 -27t27 -67q0 -41 -27 -68t-68 -27zM627 -29q-238 0 -388 147t-150 392q0 228 146 382q145 153 375 153q239 0 375 -145
q137 -146 137 -366q0 -50 -4 -74h-872q10 -155 113 -252q102 -96 270 -96q124 0 210 56q85 56 126 141l145 -43q-57 -124 -180 -210q-122 -85 -303 -85zM244 576l720 2q-10 147 -105 237t-252 90q-151 0 -252 -96q-100 -96 -111 -233z" />
    <glyph glyph-name="igrave" unicode="&#xec;" horiz-adv-x="466" 
d="M322 1184h-146l-199 278h183zM154 0v1022h159v-1022h-159z" />
    <glyph glyph-name="iacute" unicode="&#xed;" horiz-adv-x="466" 
d="M141 1184l164 278h180l-198 -278h-146zM154 0v1022h159v-1022h-159z" />
    <glyph glyph-name="icircumflex" unicode="&#xee;" horiz-adv-x="466" 
d="M313 1450l224 -270h-160l-146 186l-143 -186h-162l221 270h166zM154 0v1022h159v-1022h-159z" />
    <glyph glyph-name="idieresis" unicode="&#xef;" horiz-adv-x="466" 
d="M74 1178l-1 -1q-41 0 -69 27t-28 68t28 68t69 27q44 0 71 -27t27 -67q0 -41 -27 -68t-70 -27zM390 1177v-1q-41 0 -68 27t-27 68t27 68t68 27t68 -27t27 -67q0 -41 -27 -68t-68 -27zM153 -2v1022h159v-1022h-159z" />
    <glyph glyph-name="eth" unicode="&#xf0;" horiz-adv-x="1251" 
d="M852 1206l-1 -3q307 -331 307 -704q0 -236 -150 -383t-382 -147q-226 0 -381 147q-154 147 -154 365q0 219 150 356q151 137 375 137q176 0 294 -94q-79 149 -210 286l-401 -100l-25 100l336 86q-100 88 -235 181h219q87 -65 172 -141l244 62l24 -103zM626 116v-1
q168 0 270 102t102 259q0 152 -102 252q-101 100 -270 100q-168 0 -270 -99t-102 -249q0 -160 102 -262t270 -102z" />
    <glyph glyph-name="ntilde" unicode="&#xf1;" 
d="M498 1311h1q-56 0 -57 -115h-118q0 242 165 242q63 0 152 -61t123 -61q55 0 55 115h121q0 -240 -166 -240q-61 0 -151 60t-125 60zM691 1047v-1q190 0 300 -119t110 -327v-600h-158v578q0 152 -75 236t-213 84q-155 0 -249 -106q-95 -107 -95 -279v-514h-157v1022h157
v-180q57 92 155 149t225 57z" />
    <glyph glyph-name="ograve" unicode="&#xf2;" horiz-adv-x="1255" 
d="M719 1184h-146l-198 278h182zM628 -27h-1q-231 0 -386 155q-154 154 -154 384q0 229 155 382t386 153t384 -153t153 -382q0 -230 -153 -384q-153 -155 -384 -155zM627 119l-1 -2q164 0 273 111q110 112 110 279q0 169 -109 281q-110 113 -273 113q-166 0 -277 -112
q-111 -113 -111 -280q0 -168 111 -279t277 -111z" />
    <glyph glyph-name="oacute" unicode="&#xf3;" horiz-adv-x="1255" 
d="M539 1184l163 278h181l-199 -278h-145zM628 -27h-1q-231 0 -386 155q-154 154 -154 384q0 229 155 382t386 153t384 -153t153 -382q0 -230 -153 -384q-153 -155 -384 -155zM627 119l-1 -2q164 0 273 111q110 112 110 279q0 169 -109 281q-110 113 -273 113
q-166 0 -277 -112q-111 -113 -111 -280q0 -168 111 -279t277 -111z" />
    <glyph glyph-name="ocircumflex" unicode="&#xf4;" horiz-adv-x="1255" 
d="M629 1366l-144 -186h-161l221 270h166l223 -270h-160zM628 1047h-1q231 0 384 -153t153 -382q0 -230 -153 -384q-153 -155 -384 -155t-386 155q-154 154 -154 384q0 229 155 382t386 153zM627 119l-1 -2q164 0 273 111q110 112 110 279q0 169 -109 281q-110 113 -273 113
q-166 0 -277 -112q-111 -113 -111 -280q0 -168 111 -279t277 -111z" />
    <glyph glyph-name="otilde" unicode="&#xf5;" horiz-adv-x="1255" 
d="M772 1190q-61 0 -151 60t-124 60q-56 0 -57 -115h-118q0 242 165 242q63 0 152 -61t123 -61q55 0 55 115h121q0 -240 -166 -240zM628 -27h-1q-231 0 -386 155q-154 154 -154 384q0 229 155 382t386 153t384 -153t153 -382q0 -230 -153 -384q-153 -155 -384 -155zM627 119
l-1 -2q164 0 273 111q110 112 110 279q0 169 -109 281q-110 113 -273 113q-166 0 -277 -112q-111 -113 -111 -280q0 -168 111 -279t277 -111z" />
    <glyph glyph-name="odieresis" unicode="&#xf6;" horiz-adv-x="1255" 
d="M440 1178v-1q-41 0 -68 27t-27 68t27 68t68 27q40 0 69 -27q28 -27 28 -67q0 -41 -28 -68q-29 -27 -69 -27zM819 1177v-1q-43 0 -70 27t-27 68t27 68t70 27q41 0 68 -27t27 -67q0 -41 -27 -68t-68 -27zM628 -29h-1q-231 0 -386 155q-154 154 -154 384q0 229 155 382
t386 153t384 -153t153 -382q0 -230 -153 -384q-153 -155 -384 -155zM627 117l-1 -2q164 0 273 111q110 112 110 279q0 169 -109 281q-110 113 -273 113q-166 0 -277 -112q-111 -113 -111 -280q0 -168 111 -279t277 -111z" />
    <glyph glyph-name="divide" unicode="&#xf7;" horiz-adv-x="1187" 
d="M594 965l-1 -1q-43 0 -75 32q-31 31 -31 72t31 71q32 30 75 30q44 0 74 -30t30 -71q0 -40 -30 -72q-30 -31 -73 -31zM142 650v133h901v-133h-901zM593 263h-1q-43 0 -75 32q-31 31 -31 72t31 71t75 30t74 -30t30 -71t-30 -72q-30 -32 -73 -32z" />
    <glyph glyph-name="oslash" unicode="&#xf8;" horiz-adv-x="1255" 
d="M983 922l-1 -1q184 -156 184 -410q0 -229 -153 -384t-384 -155q-143 0 -264 64l-46 -64h-126l86 123q-191 155 -192 417q0 229 155 382q154 153 387 153q143 0 270 -66l47 68h125zM241 509v-1q0 -178 123 -291l448 639q-86 45 -183 45q-166 0 -277 -112
q-111 -113 -111 -280zM628 117v1q164 0 273 111q110 112 110 279q0 176 -117 287l-444 -637q79 -41 178 -41z" />
    <glyph glyph-name="ugrave" unicode="&#xf9;" 
d="M713 1184h-146l-198 278h182zM932 1022l158 -2v-1022h-158v178q-124 -205 -377 -205q-193 0 -303 119q-109 118 -109 330v600h158v-578q0 -152 75 -236t212 -84q155 0 250 107q94 106 94 279v514z" />
    <glyph glyph-name="uacute" unicode="&#xfa;" 
d="M877 1462l-199 -278h-146l164 278h181zM932 1022l158 -2v-1022h-158v178q-124 -205 -377 -205q-193 0 -303 119q-109 118 -109 330v600h158v-578q0 -152 75 -236t212 -84q155 0 250 107q94 106 94 279v514z" />
    <glyph glyph-name="ucircumflex" unicode="&#xfb;" 
d="M623 1366l-144 -186h-162l222 270h166l223 -270h-160zM932 1022l158 -2v-1022h-158v178q-124 -205 -377 -205q-193 0 -303 119q-109 118 -109 330v600h158v-578q0 -152 75 -236t212 -84q155 0 250 107q94 106 94 279v514z" />
    <glyph glyph-name="udieresis" unicode="&#xfc;" 
d="M432 1178v-1q-41 0 -68 27t-27 68t27 68t68 27t68 -27t27 -67q0 -41 -27 -68t-68 -27zM811 1177v-1q-43 0 -70 27t-27 68t27 68t70 27q41 0 68 -27t27 -67q0 -41 -27 -68t-68 -27zM932 1020l158 -2v-1022h-158v178q-124 -205 -377 -205q-193 0 -303 119
q-109 118 -109 330v600h158v-578q0 -152 75 -236t212 -84q155 0 250 107q94 106 94 279v514z" />
    <glyph glyph-name="yacute" unicode="&#xfd;" horiz-adv-x="1118" 
d="M823 1462l-198 -278h-146l164 278h180zM928 1022h168l-629 -1452h-166l195 450l-473 1002h174l378 -825z" />
    <glyph glyph-name="thorn" unicode="&#xfe;" horiz-adv-x="1318" 
d="M715 1047l-1 -1q221 0 368 -153t147 -382q0 -231 -147 -385t-368 -154q-134 0 -238 57t-165 157v-616h-157v1925h157v-657q132 209 404 209zM691 116l-1 -2q168 0 276 111t108 281q0 172 -108 283t-276 111q-161 0 -273 -112t-112 -280q0 -167 113 -280
q112 -112 273 -112z" />
    <glyph glyph-name="ydieresis" unicode="&#xff;" horiz-adv-x="1118" 
d="M381 1178v-1q-41 0 -68 27t-27 68t27 68t68 27t68 -27t27 -67q0 -41 -27 -68t-68 -27zM760 1177v-1q-43 0 -70 27t-27 68t27 68t70 27q41 0 68 -27t27 -67q0 -41 -27 -68t-68 -27zM928 1020h168l-629 -1452h-166l195 450l-473 1002h174l378 -825z" />
    <glyph glyph-name="Amacron" unicode="&#x100;" horiz-adv-x="1423" 
d="M981 1747v-123h-539v123h539zM1227 0l-156 385h-719l-155 -385h-174l587 1434h203l588 -1434h-174zM412 532h600l-299 738z" />
    <glyph glyph-name="amacron" unicode="&#x101;" horiz-adv-x="1318" 
d="M362 1212v123h539v-123h-539zM604 -27h-1q-221 0 -368 154q-147 155 -147 385q0 229 147 382t368 153q268 0 405 -209v184h157v-1022h-157v186q-134 -213 -404 -213zM626 117l-1 -2q160 0 273 113t113 281t-113 281t-272 113q-168 0 -276 -111t-108 -283q0 -170 108 -281
t276 -111z" />
    <glyph glyph-name="Abreve" unicode="&#x102;" horiz-adv-x="1423" 
d="M710 1569l2 -1q-146 0 -224 78t-78 197h133q2 -74 42 -119q41 -45 126 -45q86 0 128 47q42 46 42 117h133q0 -118 -79 -196t-225 -78zM1228 -1l-156 385h-719l-155 -385h-174l587 1434h203l588 -1434h-174zM413 531h600l-299 738z" />
    <glyph glyph-name="abreve" unicode="&#x103;" horiz-adv-x="1318" 
d="M630 1157h2q-146 0 -224 78t-78 197h133q2 -74 42 -119q41 -45 126 -45q86 0 128 46t42 118h133q0 -119 -79 -197t-225 -78zM605 -27h-1q-221 0 -368 154q-147 155 -147 385q0 229 147 382t368 153q268 0 405 -209v184h157v-1022h-157v186q-133 -213 -404 -213zM627 117
l-1 -2q160 0 273 113t113 281t-113 281t-272 113q-168 0 -276 -111t-108 -283q0 -170 108 -281t276 -111z" />
    <glyph glyph-name="Aogonek" unicode="&#x104;" horiz-adv-x="1423" 
d="M1446 -270l35 -112q-66 -76 -176 -76q-91 0 -148 51t-57 139q0 65 47 138t120 131h-41l-156 385h-719l-155 -385h-174l587 1434h203l588 -1434q-166 -139 -166 -249q0 -39 23 -64q23 -24 63 -24q76 0 126 66zM412 531h600l-299 738z" />
    <glyph glyph-name="aogonek" unicode="&#x105;" horiz-adv-x="1318" 
d="M1210 -270l35 -112q-66 -76 -176 -76q-91 0 -148 51t-57 139q0 65 47 138t120 131h-24v186q-133 -213 -405 -213q-221 0 -368 154t-147 385q0 229 147 382t368 153q268 0 405 -209v184h157v-1022q-166 -139 -166 -249q0 -39 23 -64q23 -24 63 -24q76 0 126 66zM627 116
l-1 -2q160 0 273 113t113 281t-113 281t-272 113q-168 0 -276 -111t-108 -283q0 -170 108 -281t276 -111z" />
    <glyph glyph-name="Cacute" unicode="&#x106;" horiz-adv-x="1597" 
d="M737 1595l164 279h180l-198 -279h-146zM829 -27l1 -2q-317 0 -530 215q-213 214 -213 533q0 313 213 526t528 213q247 0 426 -121q181 -122 248 -310l-160 -39q-55 139 -192 229q-136 90 -324 90q-253 0 -415 -170q-162 -169 -162 -414q0 -250 161 -423t417 -173
q187 0 323 88q137 89 192 229l156 -41q-70 -187 -249 -309q-178 -121 -420 -121z" />
    <glyph glyph-name="cacute" unicode="&#x107;" horiz-adv-x="1181" 
d="M530 1184l164 278h180l-198 -278h-146zM621 -27h5q-229 0 -381 155t-152 386q0 226 152 380q151 153 381 153q182 0 309 -96q128 -96 162 -214l-148 -43q-27 84 -117 147t-208 63q-168 0 -273 -115t-105 -279q0 -162 105 -277t272 -115q121 0 210 60t114 144l148 -39
q-35 -121 -162 -216q-127 -94 -312 -94z" />
    <glyph glyph-name="Cdotaccent" unicode="&#x10a;" horiz-adv-x="1597" 
d="M827 1589h-1q-47 0 -78 31t-31 78q0 45 32 75q31 30 78 30t78 -30q32 -30 32 -75q0 -46 -32 -78q-31 -31 -78 -31zM828 -27l1 -2q-317 0 -530 215q-213 214 -213 533q0 313 213 526t528 213q247 0 426 -121q181 -122 248 -310l-160 -39q-55 139 -192 229t-324 90
q-253 0 -415 -170q-162 -169 -162 -414q0 -250 161 -423t417 -173q187 0 323 88q137 89 192 229l156 -41q-71 -187 -249 -309q-178 -121 -420 -121z" />
    <glyph glyph-name="cdotaccent" unicode="&#x10b;" horiz-adv-x="1181" 
d="M620 1178h-2q-48 0 -79 30t-31 77q0 44 32 76q31 31 79 31t79 -31q32 -32 32 -76q0 -47 -31 -77t-79 -30zM618 -27h5q-229 0 -381 155t-152 386q0 226 152 380q152 153 381 153q181 0 309 -96t162 -214l-148 -43q-27 84 -117 147t-208 63q-168 0 -273 -115t-105 -279
q0 -162 105 -277t272 -115q122 0 210 60t114 144l148 -39q-34 -121 -162 -216q-127 -94 -312 -94z" />
    <glyph glyph-name="Ccaron" unicode="&#x10c;" horiz-adv-x="1597" 
d="M743 1591l-221 271h162l143 -187l146 187h160l-224 -271h-166zM827 127l1 -2q187 0 323 88q137 89 192 229l156 -41q-71 -187 -249 -309q-178 -121 -420 -121q-317 0 -530 215q-213 214 -213 533q0 313 213 526t528 213q247 0 426 -121q181 -122 248 -310l-160 -39
q-55 139 -192 229q-136 90 -324 90q-253 0 -415 -170q-162 -169 -162 -414q0 -250 161 -423t417 -173z" />
    <glyph glyph-name="ccaron" unicode="&#x10d;" horiz-adv-x="1181" 
d="M537 1180l-222 270h162l144 -186l145 186h160l-224 -270h-165zM621 117h5q122 0 210 60t114 144l148 -39q-34 -122 -162 -216q-127 -94 -312 -94q-229 0 -381 155t-152 386q0 226 152 380q151 153 381 153q182 0 309 -96q128 -96 162 -214l-148 -43q-27 84 -117 147
t-208 63q-168 0 -273 -115q-105 -116 -105 -279q0 -161 105 -277q105 -115 272 -115z" />
    <glyph glyph-name="Dcaron" unicode="&#x10e;" horiz-adv-x="1488" 
d="M614 1591l-221 271h162l143 -187l146 187h160l-224 -271h-166zM698 1434q326 0 515 -201t189 -516t-189 -516t-515 -201h-544v1434h544zM696 150l-2 2q256 0 400 159t144 411q0 246 -144 405t-398 159h-381v-1136h381z" />
    <glyph glyph-name="dcaron" unicode="&#x10f;" horiz-adv-x="1476" 
d="M1008 1495h157v-1495h-157v186q-134 -213 -405 -213q-221 0 -368 154q-147 155 -147 385q0 229 147 382t368 153q268 0 405 -209v657zM1333 1495h156l-59 -373h-123zM627 117l-1 -2q160 0 273 113t113 281t-113 281t-272 113q-168 0 -276 -111t-108 -283q0 -170 108 -281
t276 -111z" />
    <glyph glyph-name="Dcroat" unicode="&#x110;" horiz-adv-x="1552" 
d="M762 1434h-1q326 0 515 -201t189 -516t-189 -516t-514 -201h-545v645h-145v141h145v648h545zM759 150v2q254 0 398 159t144 411q0 246 -144 405t-398 159h-381v-500h444v-141h-444v-495h381z" />
    <glyph glyph-name="dcroat" unicode="&#x111;" horiz-adv-x="1337" 
d="M1315 1323v-111h-150v-1212h-157v186q-134 -213 -405 -213q-221 0 -368 154q-147 155 -147 385q0 229 147 382t368 153q268 0 405 -209v374h-390v111h390v172h157v-172h150zM627 117l-1 -2q160 0 273 113t113 281t-113 281t-272 113q-168 0 -276 -111t-108 -283
q0 -170 108 -281t276 -111z" />
    <glyph glyph-name="Emacron" unicode="&#x112;" horiz-adv-x="1275" 
d="M922 1747v-123h-539v123h539zM1163 1284h-848v-483h744v-144h-744v-507h846v-150h-1007v1434h1009v-150z" />
    <glyph glyph-name="emacron" unicode="&#x113;" horiz-adv-x="1208" 
d="M344 1212v123h539v-123h-539zM627 -27q-238 0 -388 147t-150 392q0 228 146 382q145 153 375 153q239 0 375 -145q137 -146 137 -366q0 -50 -4 -74h-872q10 -155 113 -252q102 -96 270 -96q124 0 210 56q85 56 126 141l145 -43q-57 -124 -180 -210q-122 -85 -303 -85z
M244 578l720 2q-10 147 -105 237t-252 90q-151 0 -252 -96q-100 -96 -111 -233z" />
    <glyph glyph-name="Edotaccent" unicode="&#x116;" horiz-adv-x="1275" 
d="M651 1589h-1q-47 0 -78 31t-31 78q0 45 32 75q31 30 78 30t78 -30q32 -30 32 -75q0 -46 -32 -78q-31 -31 -78 -31zM1162 1284h-848v-483h744v-144h-744v-507h846v-150h-1007v1434h1009v-150z" />
    <glyph glyph-name="edotaccent" unicode="&#x117;" horiz-adv-x="1208" 
d="M612 1178h-1q-47 0 -78 30t-31 77q0 44 32 76q31 31 78 31t78 -31q32 -32 32 -76q0 -47 -32 -77t-78 -30zM626 -27q-238 0 -388 147t-150 392q0 228 146 382q146 153 375 153q239 0 375 -145q137 -146 137 -366q0 -50 -4 -74h-872q10 -155 113 -252q102 -96 270 -96
q124 0 210 56t126 141l145 -43q-57 -124 -180 -210q-122 -85 -303 -85zM243 578l720 2q-11 147 -105 237t-252 90q-152 0 -252 -96t-111 -233z" />
    <glyph glyph-name="Eogonek" unicode="&#x118;" horiz-adv-x="1275" 
d="M1206 -270l35 -112q-66 -76 -176 -76q-91 0 -148 51t-57 139q0 65 47 138t120 131h-874v1434h1009v-150h-848v-483h744v-144h-744v-507h846v-150q-166 -139 -166 -249q0 -39 23 -64q23 -24 63 -24q76 0 126 66z" />
    <glyph glyph-name="eogonek" unicode="&#x119;" horiz-adv-x="1208" 
d="M1120 535h-1q0 -50 -4 -74h-872q10 -155 113 -252q102 -96 270 -96q124 0 210 56q86 55 126 141l145 -43q-63 -135 -190 -217q-209 -167 -209 -300q0 -39 23 -64q23 -24 63 -24q76 0 126 66l34 -111q-66 -76 -176 -76q-91 0 -148 51t-57 139q0 119 140 248q-39 -5 -88 -7
q-238 0 -388 147t-150 392q0 228 146 382q145 153 375 153q239 0 375 -145q137 -146 137 -366zM243 578l720 2q-11 147 -105 237t-252 90q-152 0 -252 -96t-111 -233z" />
    <glyph glyph-name="Ecaron" unicode="&#x11a;" horiz-adv-x="1275" 
d="M567 1591l-221 271h162l143 -187l146 187h159l-223 -271h-166zM1163 1284h-848v-483h744v-144h-744v-507h846v-150h-1007v1434h1009v-150z" />
    <glyph glyph-name="ecaron" unicode="&#x11b;" horiz-adv-x="1208" 
d="M528 1180l-221 270h162l143 -186l146 186h160l-224 -270h-166zM1120 535q0 -50 -4 -74h-872q10 -155 113 -252q102 -96 270 -96q124 0 210 56q85 55 126 141l145 -43q-57 -125 -180 -210q-122 -85 -303 -85q-238 0 -388 147t-150 392q0 228 146 382q145 153 375 153
q239 0 375 -145q137 -146 137 -366zM244 578l720 2q-10 147 -105 237t-252 90q-151 0 -252 -96q-100 -96 -111 -233z" />
    <glyph glyph-name="Gbreve" unicode="&#x11e;" horiz-adv-x="1636" 
d="M817 1569l2 -1q-145 0 -225 78q-79 78 -79 197h133q2 -74 42 -119t126 -45t128 47q42 46 42 117h133q0 -118 -78 -196t-224 -78zM1551 759l2 -91q-1 -324 -202 -511q-200 -187 -511 -187q-320 0 -535 214q-216 214 -216 534q0 313 213 526t528 213q242 0 420 -117
t252 -306l-153 -41q-62 142 -196 227q-136 86 -322 86q-256 0 -418 -170t-162 -414q0 -250 162 -424t429 -174q232 0 383 134q150 133 165 359h-564v142h725z" />
    <glyph glyph-name="gbreve" unicode="&#x11f;" horiz-adv-x="1314" 
d="M634 1157h2q-146 0 -224 78t-78 197h133q2 -74 42 -119q41 -45 126 -45q86 0 128 46t42 118h133q0 -119 -79 -197t-225 -78zM1007 1022l156 -2v-987q0 -213 -141 -352q-140 -139 -365 -139q-336 0 -485 269l139 51q110 -182 348 -182q161 0 252 100t96 255v174
q-134 -197 -402 -197q-223 0 -370 149t-147 369q0 223 147 370t370 147q270 0 402 -195v170zM629 154l-1 -3q160 0 271 108t111 265q0 160 -111 268t-270 108q-168 0 -276 -105t-108 -269q0 -162 108 -267t276 -105z" />
    <glyph glyph-name="Gdotaccent" unicode="&#x120;" horiz-adv-x="1636" 
d="M817 1589h-1q-47 0 -78 31t-31 78q0 45 32 75q31 30 78 30t78 -30q32 -30 32 -75q0 -46 -32 -78q-31 -31 -78 -31zM1549 760l2 -91q-1 -324 -202 -511q-200 -187 -511 -187q-320 0 -535 214q-216 215 -216 534q0 313 213 526t528 213q242 0 420 -117t252 -306l-153 -41
q-62 142 -196 227q-136 86 -322 86q-256 0 -418 -170q-162 -169 -162 -414q0 -250 162 -424t429 -174q232 0 383 134q150 133 165 359h-564v142h725z" />
    <glyph glyph-name="gdotaccent" unicode="&#x121;" horiz-adv-x="1314" 
d="M635 1178h-1q-46 0 -78 30t-32 77q0 44 32 76q31 31 78 31t78 -31q32 -32 32 -76q0 -47 -31 -77t-78 -30zM1005 1022l156 -2v-987q0 -213 -141 -352q-140 -139 -365 -139q-336 0 -485 269l139 51q110 -182 348 -182q161 0 252 100t96 255v174q-134 -197 -402 -197
q-223 0 -370 149t-147 369q0 223 147 370t370 147q270 0 402 -195v170zM627 154l-1 -3q160 0 271 108t111 265q0 160 -111 268t-270 108q-168 0 -276 -105t-108 -269q0 -162 108 -267t276 -105z" />
    <glyph glyph-name="uni0122" unicode="&#x122;" horiz-adv-x="1636" 
d="M1550 760l2 -91q-2 -324 -202 -511t-511 -187q-320 0 -535 214q-216 215 -216 534q0 313 213 526t528 213q241 0 420 -117t252 -306l-153 -41q-62 142 -196 227q-136 86 -322 86q-256 0 -418 -170q-162 -169 -162 -414q0 -250 162 -424t429 -174q232 0 383 134
q150 133 165 359h-564v142h725zM727 -515l27 367h153l-57 -367h-123z" />
    <glyph glyph-name="uni0123" unicode="&#x123;" horiz-adv-x="1314" 
d="M733 1556l-26 -366h-154l57 366h123zM1006 1022l156 -2v-987q0 -213 -141 -352q-140 -139 -365 -139q-336 0 -485 269l139 51q110 -182 348 -182q161 0 252 100q92 100 96 255v174q-134 -197 -402 -197q-223 0 -370 149t-147 369q0 223 147 370t370 147q270 0 402 -195
v170zM628 154l-1 -3q160 0 271 108t111 265q0 160 -111 268t-270 108q-168 0 -276 -105t-108 -269q0 -162 108 -267t276 -105z" />
    <glyph glyph-name="Hbar" unicode="&#x126;" horiz-adv-x="1525" 
d="M1491 1182v-119h-145v-1063h-164v657h-836v-657h-164v1063h-145v119h145v252h164v-252h836v252h164v-252h145zM1182 805v258h-836v-258h836z" />
    <glyph glyph-name="hbar" unicode="&#x127;" horiz-adv-x="1257" 
d="M705 1047l-2 -1q190 0 300 -119t110 -327v-600h-158v578q0 152 -75 236t-211 84q-155 0 -249 -106q-95 -107 -95 -279v-514h-158v1212h-145v111h145v172h158v-172h393v-111h-393v-370q57 92 155 149t225 57z" />
    <glyph glyph-name="Imacron" unicode="&#x12a;" horiz-adv-x="471" 
d="M-33 1624v123h539v-123h-539zM154 0v1434h163v-1434h-163z" />
    <glyph glyph-name="imacron" unicode="&#x12b;" horiz-adv-x="466" 
d="M-37 1212v123h539v-123h-539zM154 0v1022h159v-1022h-159z" />
    <glyph glyph-name="Iogonek" unicode="&#x12e;" horiz-adv-x="471" 
d="M391 -270l32 -112q-61 -76 -178 -76q-89 0 -145 51q-55 51 -55 137q0 128 137 270h-28v1434h163v-1434q-137 -142 -137 -246q0 -90 82 -90q74 0 129 66z" />
    <glyph glyph-name="iogonek" unicode="&#x12f;" horiz-adv-x="466" 
d="M231 1178h-2q-47 0 -79 30q-31 30 -31 77q0 44 32 76q31 31 79 31t79 -31q32 -32 32 -76q0 -47 -31 -77q-32 -30 -79 -30zM384 -270l32 -112q-61 -76 -178 -76q-90 0 -145 51t-55 137q0 128 137 270h-24v1022h159v-1022q-137 -142 -137 -246q0 -90 82 -90q73 0 129 66z
" />
    <glyph glyph-name="Idotaccent" unicode="&#x130;" horiz-adv-x="471" 
d="M237 1589h-2q-48 0 -79 31t-31 78q0 45 32 75q31 30 79 30t79 -30q32 -30 32 -75q0 -47 -31 -78t-79 -31zM151 0v1434h163v-1434h-163z" />
    <glyph glyph-name="dotlessi" unicode="&#x131;" horiz-adv-x="466" 
d="M154 0v1022h159v-1022h-159z" />
    <glyph glyph-name="uni0136" unicode="&#x136;" horiz-adv-x="1388" 
d="M702 791l646 -791h-201l-553 676l-277 -301v-375h-163v1434h163v-840l768 840h209zM596 -512l27 367h153l-57 -367h-123z" />
    <glyph glyph-name="uni0137" unicode="&#x137;" horiz-adv-x="1077" 
d="M569 578l478 -578h-187l-393 471l-156 -162v-309h-157v1495h157v-983l488 510h194zM485 -512l27 367h154l-58 -367h-123z" />
    <glyph glyph-name="Lacute" unicode="&#x139;" horiz-adv-x="1169" 
d="M518 1874l-199 -279h-145l164 279h180zM317 150h795v-150h-958v1434h163v-1284z" />
    <glyph glyph-name="lacute" unicode="&#x13a;" horiz-adv-x="464" 
d="M143 1657l164 278h180l-198 -278h-146zM154 0v1495h157v-1495h-157z" />
    <glyph glyph-name="uni013B" unicode="&#x13b;" horiz-adv-x="1169" 
d="M317 150h795v-150h-958v1434h163v-1284zM532 -512l27 367h154l-58 -367h-123z" />
    <glyph glyph-name="uni013C" unicode="&#x13c;" horiz-adv-x="464" 
d="M154 0v1495h157v-1495h-157zM129 -512l27 367h153l-57 -367h-123z" />
    <glyph glyph-name="Lcaron" unicode="&#x13d;" horiz-adv-x="1183" 
d="M317 150h795v-150h-958v1434h163v-1284zM1098 1434l-60 -357h-123l23 357h160z" />
    <glyph glyph-name="lcaron" unicode="&#x13e;" horiz-adv-x="643" 
d="M154 0v1495h157v-1495h-157zM453 1122l24 373h156l-58 -373h-122z" />
    <glyph glyph-name="Lslash" unicode="&#x141;" horiz-adv-x="1234" 
d="M383 150h795v-150h-959v565l-158 -67v145l158 68v723h164v-652l430 185v-144l-430 -186v-487z" />
    <glyph glyph-name="lslash" unicode="&#x142;" horiz-adv-x="565" 
d="M545 1036v-143l-183 -84v-807h-157v733l-185 -86v142l185 86v620h157v-547z" />
    <glyph glyph-name="Nacute" unicode="&#x143;" horiz-adv-x="1480" 
d="M995 1874l-198 -279h-146l164 279h180zM1165 1434h162v-1434h-141l-869 1147v-1147h-163v1434h141l870 -1149v1149z" />
    <glyph glyph-name="nacute" unicode="&#x144;" 
d="M885 1462l-199 -278h-145l164 278h180zM690 1047v-1q190 0 300 -119t110 -327v-600h-158v578q0 152 -75 236t-213 84q-155 0 -249 -106q-95 -107 -95 -279v-514h-157v1022h157v-180q57 92 155 149q97 57 225 57z" />
    <glyph glyph-name="uni0145" unicode="&#x145;" horiz-adv-x="1480" 
d="M1165 1434h162v-1434h-141l-869 1147v-1147h-163v1434h141l870 -1149v1149zM647 -512l27 367h153l-57 -367h-123z" />
    <glyph glyph-name="uni0146" unicode="&#x146;" 
d="M690 1047v-1q190 0 300 -119t110 -327v-600h-158v578q0 152 -75 236t-213 84q-155 0 -249 -106q-95 -107 -95 -279v-514h-157v1022h157v-180q57 92 155 149q97 57 225 57zM535 -513l26 367h154l-58 -367h-122z" />
    <glyph glyph-name="Ncaron" unicode="&#x147;" horiz-adv-x="1480" 
d="M657 1591l-221 271h162l143 -187l146 187h160l-224 -271h-166zM1165 1434h162v-1434h-141l-869 1147v-1147h-163v1434h141l870 -1149v1149z" />
    <glyph glyph-name="ncaron" unicode="&#x148;" 
d="M549 1180l-221 270h161l144 -186l145 186h160l-223 -270h-166zM690 1047v-1q190 0 300 -119t110 -327v-600h-158v578q0 152 -75 236t-213 84q-155 0 -249 -106q-95 -107 -95 -279v-514h-157v1022h157v-180q57 92 155 149q97 57 225 57z" />
    <glyph glyph-name="Eng" unicode="&#x14a;" horiz-adv-x="1480" 
d="M1165 1434h162v-1512q0 -168 -75 -261t-229 -93q-75 0 -166 41l37 131q57 -33 121 -33q151 0 150 207v113l-848 1120v-1147h-163v1434h141l870 -1149v1149z" />
    <glyph glyph-name="eng" unicode="&#x14b;" 
d="M690 1047v-1q190 0 300 -119t110 -327v-696q0 -170 -76 -265q-76 -96 -229 -96q-82 0 -166 41l37 131q53 -33 116 -32q160 0 160 213v682q0 152 -75 236t-213 84q-155 0 -249 -106q-95 -107 -95 -279v-514h-157v1022h157v-180q57 92 155 149q97 57 225 57z" />
    <glyph glyph-name="Omacron" unicode="&#x14c;" horiz-adv-x="1650" 
d="M557 1624v123h539v-123h-539zM825 -27q-315 0 -527 215t-212 533q0 312 212 526q212 213 527 213t527 -213q212 -214 212 -526q0 -315 -212 -532q-212 -216 -527 -216zM824 125h-1q254 0 414 172q161 173 161 424q0 245 -161 417q-161 171 -414 171t-414 -171
q-160 -170 -160 -417q0 -251 161 -424q160 -172 414 -172z" />
    <glyph glyph-name="omacron" unicode="&#x14d;" horiz-adv-x="1255" 
d="M360 1212v123h539v-123h-539zM628 -27h-1q-231 0 -386 155q-154 154 -154 384q0 229 155 382t386 153t384 -153t153 -382q0 -230 -153 -384q-153 -155 -384 -155zM627 119l-1 -2q164 0 273 111q110 112 110 279q0 169 -109 281q-110 113 -273 113q-166 0 -277 -112
q-111 -113 -111 -280q0 -168 111 -279t277 -111z" />
    <glyph glyph-name="Ohungarumlaut" unicode="&#x150;" horiz-adv-x="1650" 
d="M571 1595l158 279h160l-170 -279h-148zM885 1595l176 279h160l-189 -279h-147zM825 -27q-315 0 -527 215t-212 533q0 312 212 526q212 213 527 213t527 -213q212 -214 212 -526q0 -315 -212 -532q-212 -216 -527 -216zM824 125h-1q254 0 414 172q161 173 161 424
q0 245 -161 417q-161 171 -414 171t-414 -171q-160 -170 -160 -417q0 -251 161 -424q160 -172 414 -172z" />
    <glyph glyph-name="ohungarumlaut" unicode="&#x151;" horiz-adv-x="1255" 
d="M375 1184l157 278h160l-170 -278h-147zM688 1184l176 278h160l-188 -278h-148zM628 -27h-1q-231 0 -386 155q-154 154 -154 384q0 229 155 382t386 153t384 -153t153 -382q0 -230 -153 -384q-153 -155 -384 -155zM627 119l-1 -2q164 0 273 111q110 112 110 279
q0 169 -109 281q-110 113 -273 113q-166 0 -277 -112q-111 -113 -111 -280q0 -168 111 -279t277 -111z" />
    <glyph glyph-name="OE" unicode="&#x152;" horiz-adv-x="2052" 
d="M1939 1284h-748v-483h643v-144h-643v-507h745v-150h-1142q-328 0 -519 201q-190 200 -190 516q0 314 191 516q190 201 519 201h1144v-150zM794 150h232v1134h-233q-253 0 -399 -159q-145 -158 -145 -405q0 -252 144 -411t401 -159z" />
    <glyph glyph-name="oe" unicode="&#x153;" horiz-adv-x="2131" 
d="M2044 528h-3q0 -50 -4 -75h-871q16 -154 120 -247t256 -93q112 0 195 47q81 46 121 119l145 -43q-56 -113 -174 -188t-286 -75q-161 0 -279 73q-119 74 -180 196q-67 -123 -188 -195q-120 -72 -269 -72q-232 0 -386 154q-155 155 -155 385q0 229 155 382t387 153
q152 0 272 -72q121 -72 185 -195q66 123 182 194t266 71q239 0 375 -147q136 -146 136 -372zM1164 571l724 2q-12 152 -106 243q-95 92 -252 92q-152 0 -254 -99t-112 -238zM625 121l-1 -1q163 0 273 113t110 279q0 167 -109 280q-110 114 -273 114q-166 0 -277 -114
t-111 -280t111 -279q111 -112 277 -112z" />
    <glyph glyph-name="Racute" unicode="&#x154;" horiz-adv-x="1384" 
d="M922 1874l-199 -279h-145l163 279h181zM1110 0l-374 562h-420v-563h-161v1434h663q209 0 332 -133q123 -134 123 -303q0 -151 -96 -273t-264 -153l385 -571h-188zM316 1285l1 -578h496q137 0 219 85q83 86 83 204q0 117 -83 203t-218 86h-498z" />
    <glyph glyph-name="racute" unicode="&#x155;" horiz-adv-x="724" 
d="M662 1462l-199 -278h-146l164 278h181zM311 846h1q47 104 141 155q95 51 225 32v-147q-173 23 -270 -76q-97 -98 -97 -333v-477h-157v1022h157v-176z" />
    <glyph glyph-name="uni0156" unicode="&#x156;" horiz-adv-x="1384" 
d="M913 571l386 -572h-188l-375 563h-420v-563h-161v1434h663q209 0 332 -133q123 -134 123 -303q0 -151 -96 -273t-264 -153zM316 1285l1 -578h496q137 0 219 85q83 86 83 204q0 117 -83 203t-218 86h-498zM604 -514l27 367h153l-57 -367h-123z" />
    <glyph glyph-name="uni0157" unicode="&#x157;" horiz-adv-x="724" 
d="M311 846h1q47 104 141 155q95 51 225 32v-147q-173 23 -270 -76q-97 -98 -97 -333v-477h-157v1022h157v-176zM132 -512l27 367h153l-57 -367h-123z" />
    <glyph glyph-name="Rcaron" unicode="&#x158;" horiz-adv-x="1384" 
d="M584 1591l-222 271h162l144 -187l145 187h160l-223 -271h-166zM1110 0l-374 562h-420v-563h-161v1434h663q209 0 332 -133q123 -134 123 -303q0 -151 -96 -273t-264 -153l385 -571h-188zM316 1285l1 -578h496q137 0 219 85q83 86 83 204q0 117 -83 203t-218 86h-498z" />
    <glyph glyph-name="rcaron" unicode="&#x159;" horiz-adv-x="724" 
d="M324 1180l-222 270h162l144 -186l145 186h160l-224 -270h-165zM311 846h1q47 104 141 155q95 51 225 32v-147q-173 23 -270 -76q-97 -98 -97 -333v-477h-157v1022h157v-176z" />
    <glyph glyph-name="Sacute" unicode="&#x15a;" horiz-adv-x="1353" 
d="M569 1595l164 279h180l-198 -279h-146zM705 -27l-5 -4q-231 0 -403 125q-170 124 -229 305l155 48q50 -143 180 -236q131 -93 306 -93q167 0 270 81q104 81 104 187q0 84 -59 141q-58 57 -203 102l-358 114q-317 102 -317 336q0 156 137 267t342 111q212 0 366 -98
t218 -249l-151 -47q-53 116 -165 182q-113 66 -267 66q-137 0 -225 -67t-88 -160q0 -72 51 -118q50 -45 173 -85l348 -111q184 -58 274 -141q90 -82 90 -232q0 -175 -153 -300q-152 -124 -391 -124z" />
    <glyph glyph-name="sacute" unicode="&#x15b;" horiz-adv-x="1044" 
d="M399 1184l164 278h180l-198 -278h-146zM528 -27l-2 -5q-170 0 -300 90q-130 89 -169 221l148 41q29 -92 117 -152t207 -60q114 0 185 49q72 49 72 120q0 59 -34 90t-114 57l-291 86q-239 70 -237 249q0 116 108 202q107 85 266 85q157 0 271 -72t162 -182l-144 -43
q-29 71 -106 117q-79 47 -184 47q-95 0 -156 -47q-60 -46 -60 -104q0 -82 137 -123l291 -86q116 -34 183 -95q66 -60 66 -170q0 -135 -118 -225t-298 -90z" />
    <glyph glyph-name="Scedilla" unicode="&#x15e;" horiz-adv-x="1353" 
d="M1249 397l-7 -1q0 -167 -139 -288q-140 -122 -358 -135l-29 -94q82 -6 132 -51q49 -45 49 -111q0 -83 -63 -129q-62 -46 -157 -46q-119 0 -207 66l27 90q95 -66 186 -54q92 12 92 78q0 52 -69 72q-69 19 -142 3l56 176q-202 19 -351 141t-201 285l155 48
q50 -143 180 -236q131 -93 306 -93q167 0 270 81q104 81 104 187q0 84 -59 141q-58 57 -203 102l-358 114q-317 102 -317 336q0 156 137 267t342 111q212 0 366 -98t218 -249l-151 -47q-53 116 -165 182q-113 66 -267 66q-137 0 -225 -67t-88 -160q0 -72 51 -118
q50 -45 173 -85l348 -111q184 -58 274 -141q90 -82 90 -232z" />
    <glyph glyph-name="scedilla" unicode="&#x15f;" horiz-adv-x="1044" 
d="M944 287l-6 -3q0 -128 -108 -217q-107 -88 -278 -97l-29 -92q83 -6 132 -51q50 -45 50 -111q0 -82 -63 -129q-62 -46 -158 -46q-119 0 -206 66l26 90q94 -66 187 -54t93 78q0 53 -69 72t-142 3l57 181q-136 25 -238 108q-102 82 -135 194l148 41q29 -92 117 -152t207 -60
q114 0 185 49q72 49 72 120q0 59 -34 90t-114 57l-291 86q-239 70 -237 249q0 116 108 202q107 85 266 85q157 0 271 -72t162 -182l-144 -43q-29 71 -106 117q-79 47 -184 47q-95 0 -156 -47q-60 -46 -60 -104q0 -82 137 -123l291 -86q116 -34 183 -95q66 -60 66 -171z" />
    <glyph glyph-name="Scaron" unicode="&#x160;" horiz-adv-x="1353" 
d="M575 1591l-221 271h162l143 -187l146 187h160l-224 -271h-166zM885 770l-6 -4q184 -58 274 -141t90 -232q0 -175 -153 -300q-152 -124 -390 -124q-231 0 -403 125q-170 124 -229 305l155 48q50 -143 180 -236q131 -93 306 -93q167 0 270 81q104 81 104 187q0 84 -59 141
q-58 57 -203 102l-358 114q-317 102 -317 336q0 156 137 267t342 111q212 0 366 -98t218 -249l-151 -47q-53 116 -165 182q-113 66 -267 66q-137 0 -225 -67t-88 -160q0 -72 51 -118q50 -45 173 -85z" />
    <glyph glyph-name="scaron" unicode="&#x161;" horiz-adv-x="1044" 
d="M408 1180l-222 270h162l144 -186l145 186h160l-224 -270h-165zM694 553l-3 -5q116 -34 183 -95q66 -60 66 -170q0 -135 -117 -225t-298 -90q-169 0 -300 90q-130 89 -169 221l148 41q29 -92 117 -152q89 -60 207 -60q114 0 185 49q72 49 72 120q0 59 -34 90
q-35 31 -114 57l-291 86q-238 70 -237 249q0 116 108 202q107 85 266 85q157 0 271 -72t162 -182l-144 -43q-29 71 -106 117q-79 47 -184 47q-95 0 -156 -47q-60 -46 -60 -104q0 -82 137 -123z" />
    <glyph glyph-name="uni0162" unicode="&#x162;" horiz-adv-x="1284" 
d="M725 1284l-1 -1282l-37 -119q83 -6 132 -51t49 -111q0 -83 -63 -129q-62 -46 -157 -46q-118 0 -207 66l27 90q94 -66 186 -54t92 78q0 52 -69 72q-69 19 -142 3l63 199h-37v1284h-530v150h1222v-150h-528z" />
    <glyph glyph-name="uni0163" unicode="&#x163;" horiz-adv-x="837" 
d="M555 -119l-3 2q82 -6 132 -51q49 -45 49 -111q0 -83 -63 -129q-62 -46 -157 -46q-119 0 -207 66l27 90q95 -66 186 -54q92 12 92 78q0 52 -69 72q-69 19 -142 3l62 193q-217 45 -217 317v568h-203v143h203v352h157v-352h351v-143h-351v-568q0 -180 166 -180q75 0 147 35
l43 -135q-84 -37 -170 -43z" />
    <glyph glyph-name="Tcaron" unicode="&#x164;" horiz-adv-x="1284" 
d="M559 1591l-221 271h162l143 -187l145 187h160l-223 -271h-166zM1253 1434v-150h-528v-1284h-164v1284h-530v150h1222z" />
    <glyph glyph-name="tcaron" unicode="&#x165;" horiz-adv-x="851" 
d="M707 1468l-54 -329h-121l21 329h154zM715 166l43 -135q-104 -45 -213 -45q-150 0 -225 87t-75 238v568h-203v143h203v352h157v-352h351v-143h-351v-568q0 -180 166 -180q75 0 147 35z" />
    <glyph glyph-name="Tbar" unicode="&#x166;" horiz-adv-x="1284" 
d="M1253 1284h-528v-510h340v-133h-340v-641h-164v641h-366v133h366v510h-530v150h1222v-150z" />
    <glyph glyph-name="tbar" unicode="&#x167;" horiz-adv-x="839" 
d="M717 166l44 -135q-109 -45 -216 -45q-150 0 -225 87t-75 238v242h-187v117h187v225h-203v127h203v352h157v-352h353v-127h-353v-225h306v-117h-306v-242q0 -180 168 -180q75 0 147 35z" />
    <glyph glyph-name="Umacron" unicode="&#x16a;" horiz-adv-x="1449" 
d="M995 1747v-123h-538v123h538zM1151 1434h162v-865q0 -270 -157 -433t-433 -163t-433 163t-157 433v865h166v-861q0 -205 110 -327q109 -121 315 -121q205 0 316 122q111 121 111 326v861z" />
    <glyph glyph-name="umacron" unicode="&#x16b;" 
d="M893 1335v-123h-539v123h539zM932 1022l158 -2v-1022h-158v178q-124 -205 -377 -205q-193 0 -303 119q-109 118 -109 330v600h158v-578q0 -152 75 -236t212 -84q155 0 250 107q94 106 94 279v514z" />
    <glyph glyph-name="Uring" unicode="&#x16e;" horiz-adv-x="1449" 
d="M725 1542h-1q-96 0 -162 63t-66 158t66 158t162 63q98 0 164 -63t66 -158t-66 -158t-163 -63zM724 1878v-2q-53 0 -84 -31q-32 -32 -32 -83t32 -83q31 -31 84 -31q55 0 87 32t32 83t-32 83t-87 32zM1150 1432h162v-865q0 -270 -157 -433t-433 -163t-433 163t-157 433v865
h166v-861q0 -205 110 -327q109 -121 315 -121q205 0 316 122q111 121 111 326v861z" />
    <glyph glyph-name="uring" unicode="&#x16f;" 
d="M623 1130h-2q-96 0 -162 63t-66 158t66 158t163 63q98 0 164 -63t66 -158t-66 -158t-163 -63zM621 1466l-3 -2q-53 0 -84 -31q-32 -32 -32 -83t32 -83q31 -31 86 -31t87 32t32 83q0 52 -31 83q-32 32 -87 32zM927 1020l158 -2v-1022h-158v178q-124 -205 -377 -205
q-193 0 -303 119q-109 118 -109 330v600h158v-578q0 -152 75 -236t212 -84q155 0 250 107q94 106 94 279v514z" />
    <glyph glyph-name="Uhungarumlaut" unicode="&#x170;" horiz-adv-x="1449" 
d="M788 1874l-170 -279h-147l158 279h159zM932 1595h-148l177 279h159zM1151 1434h162v-865q0 -270 -157 -433t-433 -163t-433 163t-157 433v865h166v-861q0 -205 110 -327q109 -121 315 -121q205 0 316 122q111 121 111 326v861z" />
    <glyph glyph-name="uhungarumlaut" unicode="&#x171;" 
d="M686 1462l-170 -278h-147l157 278h160zM829 1184h-147l176 278h160zM932 1022l158 -2v-1022h-158v178q-124 -205 -377 -205q-193 0 -303 119q-109 118 -109 330v600h158v-578q0 -152 75 -236t212 -84q155 0 250 107q94 106 94 279v514z" />
    <glyph glyph-name="Uogonek" unicode="&#x172;" horiz-adv-x="1449" 
d="M1151 1434l161 -1v-865q0 -347 -248 -508q-101 -77 -163 -159q-61 -80 -61 -145q0 -39 23 -64q23 -24 63 -24q70 0 126 66l32 -109q-61 -76 -177 -76q-91 0 -147 51q-55 51 -55 139q0 119 135 243q-50 -8 -117 -9q-276 0 -433 163t-157 433v865h166v-861q0 -205 110 -327
q109 -121 315 -121q205 0 316 122q111 121 111 326v861z" />
    <glyph glyph-name="uogonek" unicode="&#x173;" 
d="M1137 -270l34 -114q-61 -76 -177 -76q-90 0 -146 51t-56 139q0 62 47 136t117 132h-24v178q-124 -205 -377 -205q-193 0 -303 119q-109 118 -109 330v600h158v-578q0 -152 75 -236t212 -84q155 0 250 107q94 106 94 279v514h158v-1022q-75 -65 -119 -130
q-45 -67 -45 -118q0 -39 23 -64q23 -24 63 -24q72 0 125 66z" />
    <glyph glyph-name="Wcircumflex" unicode="&#x174;" horiz-adv-x="2019" 
d="M1010 1778l-144 -187h-161l221 271h166l223 -271h-160zM1819 1434h170l-451 -1434h-170l-358 1167l-359 -1167h-170l-450 1434h170l366 -1203l367 1203h149l367 -1203z" />
    <glyph glyph-name="wcircumflex" unicode="&#x175;" horiz-adv-x="1574" 
d="M786 1366l-143 -186h-162l221 270h166l224 -270h-160zM1386 1022h164l-350 -1022h-153l-259 786l-260 -786h-153l-352 1022h165l269 -821l262 821h137l262 -821z" />
    <glyph glyph-name="Ycircumflex" unicode="&#x176;" horiz-adv-x="1335" 
d="M670 1778l-144 -187h-161l221 271h166l223 -271h-160zM1128 1434h185l-563 -885v-549h-164v549l-563 885h186l459 -732z" />
    <glyph glyph-name="ycircumflex" unicode="&#x177;" horiz-adv-x="1118" 
d="M571 1366l-143 -186h-162l221 270h166l224 -270h-160zM928 1022h168l-629 -1452h-166l195 450l-473 1002h174l378 -825z" />
    <glyph glyph-name="Ydieresis" unicode="&#x178;" horiz-adv-x="1335" 
d="M479 1589v-1q-41 0 -68 28t-27 69t27 68t68 27t68 -27t27 -67t-27 -69q-27 -28 -68 -28zM858 1588v-1q-43 0 -70 28q-27 29 -27 69q0 41 27 68t70 27q41 0 68 -27t27 -67q0 -41 -27 -69t-68 -28zM1128 1432h185l-563 -885v-549h-164v549l-563 885h186l459 -732z" />
    <glyph glyph-name="Zacute" unicode="&#x179;" horiz-adv-x="1280" 
d="M905 1874l-198 -279h-146l164 279h180zM311 147h893v-147h-1120v109l874 1177h-852v148h1076v-111z" />
    <glyph glyph-name="zacute" unicode="&#x17a;" horiz-adv-x="1056" 
d="M784 1462l-198 -278h-146l164 278h180zM307 137h660v-137h-875v104l643 781h-631v137h844v-109z" />
    <glyph glyph-name="Zdotaccent" unicode="&#x17b;" horiz-adv-x="1280" 
d="M651 1589h-1q-47 0 -78 31t-31 78q0 45 32 75q31 30 78 30t78 -30q32 -30 32 -75q0 -46 -32 -78q-31 -31 -78 -31zM310 147h893v-147h-1120v109l874 1177h-852v148h1076v-111z" />
    <glyph glyph-name="zdotaccent" unicode="&#x17c;" horiz-adv-x="1056" 
d="M530 1178h-2q-48 0 -79 30t-31 77q0 44 32 76q31 31 79 31t79 -31q32 -32 32 -76q0 -47 -31 -77t-79 -30zM304 137h660v-137h-875v104l643 781h-631v137h844v-109z" />
    <glyph glyph-name="Zcaron" unicode="&#x17d;" horiz-adv-x="1280" 
d="M567 1591l-221 271h162l143 -187l146 187h159l-223 -271h-166zM311 147h893v-147h-1120v109l874 1177h-852v148h1076v-111z" />
    <glyph glyph-name="zcaron" unicode="&#x17e;" horiz-adv-x="1056" 
d="M446 1180l-221 270h162l143 -186l146 186h160l-224 -270h-166zM307 137h660v-137h-875v104l643 781h-631v137h844v-109z" />
    <glyph glyph-name="florin" unicode="&#x192;" horiz-adv-x="1028" 
d="M776 1380h1q-147 0 -176 -239l-37 -275h295v-131h-311l-90 -669q-46 -385 -318 -385q-127 0 -201 77l59 123q56 -59 139 -59q141 0 172 244l88 669h-262v131h279l37 275q47 381 323 381q134 0 217 -74l-61 -127q-61 59 -154 59z" />
    <glyph glyph-name="uni0218" unicode="&#x218;" horiz-adv-x="1353" 
d="M705 -27l-5 -4q-231 0 -403 125q-170 124 -229 305l155 48q50 -143 180 -236q131 -93 306 -93q167 0 270 81q104 81 104 187q0 84 -59 141q-58 57 -203 102l-358 114q-317 102 -317 336q0 156 137 267t342 111q212 0 366 -98t218 -249l-151 -47q-53 116 -165 182
q-113 66 -267 66q-137 0 -225 -67t-88 -160q0 -72 51 -118q50 -45 173 -85l348 -111q184 -58 274 -141q90 -82 90 -232q0 -175 -153 -300q-152 -124 -391 -124zM587 -516l26 367h154l-57 -367h-123z" />
    <glyph glyph-name="uni0219" unicode="&#x219;" horiz-adv-x="1044" 
d="M528 -27l-2 -5q-170 0 -300 90q-130 89 -169 221l148 41q29 -92 117 -152t207 -60q114 0 185 49q72 49 72 120q0 59 -34 90t-114 57l-291 86q-239 70 -237 249q0 116 108 202q107 85 266 85q157 0 271 -72t162 -182l-144 -43q-29 71 -106 117q-79 47 -184 47
q-95 0 -156 -47q-60 -46 -60 -104q0 -82 137 -123l291 -86q116 -34 183 -95q66 -60 66 -170q0 -135 -118 -225t-298 -90zM395 -517l27 367h154l-58 -367h-123z" />
    <glyph glyph-name="uni021A" unicode="&#x21a;" horiz-adv-x="1284" 
d="M1253 1434v-150h-528v-1284h-164v1284h-530v150h1222zM549 -512l26 367h152l-55 -367h-123z" />
    <glyph glyph-name="uni021B" unicode="&#x21b;" horiz-adv-x="837" 
d="M758 31q-104 -45 -213 -45q-150 0 -225 87t-75 238v568h-203v143h203v352h157v-352h351v-143h-351v-568q0 -180 166 -180q75 0 147 35zM412 -512l26 367h154l-57 -367h-123z" />
    <glyph glyph-name="circumflex" unicode="&#x2c6;" horiz-adv-x="610" 
d="M610 1180h-159l-146 186l-143 -186h-162l221 270h166z" />
    <glyph glyph-name="caron" unicode="&#x2c7;" horiz-adv-x="610" 
d="M451 1450h159l-223 -270h-166l-221 270h162l143 -186z" />
    <glyph glyph-name="breve" unicode="&#x2d8;" horiz-adv-x="606" 
d="M303 1157h2q-145 0 -225 78q-79 78 -79 197h133q2 -74 42 -119t126 -45t128 46t42 118h133q0 -119 -78 -197t-224 -78z" />
    <glyph glyph-name="dotaccent" unicode="&#x2d9;" horiz-adv-x="221" 
d="M110 1208h-2q-48 0 -79 31t-31 78t32 77q31 30 79 30q47 0 79 -30t32 -77t-31 -78t-79 -31z" />
    <glyph glyph-name="ring" unicode="&#x2da;" horiz-adv-x="456" 
d="M227 1130q-96 0 -162 63t-66 158t66 158t162 63q98 0 164 -63t66 -158t-66 -158t-164 -63zM227 1237l-2 -2q55 0 87 32t32 83q0 52 -31 83q-32 32 -87 32q-53 0 -84 -31t-31 -83q0 -51 32 -83q31 -31 84 -31z" />
    <glyph glyph-name="ogonek" unicode="&#x2db;" horiz-adv-x="378" 
d="M203 -457l2 -1q-90 0 -147 51t-57 139q0 62 47 136q46 73 119 132h133q-75 -65 -119 -130q-45 -68 -45 -118q0 -39 23 -64q23 -24 63 -24q72 0 125 66l33 -111q-61 -76 -177 -76z" />
    <glyph glyph-name="tilde" unicode="&#x2dc;" horiz-adv-x="616" 
d="M451 1190h-2q-61 0 -151 60t-125 60q-55 0 -55 -115h-119q0 242 166 242q63 0 152 -61t122 -61q56 0 57 115h120q2 -240 -165 -240z" />
    <glyph glyph-name="hungarumlaut" unicode="&#x2dd;" horiz-adv-x="649" 
d="M0 1184l158 278h159l-170 -278h-147zM313 1184l176 278h160l-188 -278h-148z" />
    <glyph glyph-name="gravecomb" unicode="&#x300;" horiz-adv-x="0" 
d="M0 1184h-145l-199 278h182z" />
    <glyph glyph-name="acutecomb" unicode="&#x301;" horiz-adv-x="0" 
d="M-344 1184l164 278h180l-199 -278h-145z" />
    <glyph glyph-name="uni0302" unicode="&#x302;" horiz-adv-x="0" 
d="M0 1180h-160l-145 186l-144 -186h-161l221 270h166z" />
    <glyph glyph-name="tildecomb" unicode="&#x303;" horiz-adv-x="0" 
d="M-166 1190q-61 0 -151 60t-124 60q-56 0 -57 -115h-118q0 242 165 242q63 0 152 -61t123 -61q55 0 55 115h123q0 -240 -168 -240z" />
    <glyph glyph-name="uni0304" unicode="&#x304;" horiz-adv-x="0" 
d="M-539 1212v123h541v-123h-541z" />
    <glyph glyph-name="uni0306" unicode="&#x306;" horiz-adv-x="0" 
d="M-304 1157h2q-146 0 -224 78t-78 197h133q2 -74 42 -119q41 -45 126 -45q86 0 128 46t42 118h133q0 -119 -79 -197t-225 -78z" />
    <glyph glyph-name="uni0307" unicode="&#x307;" horiz-adv-x="0" 
d="M-111 1178h-2q-47 0 -79 30q-31 30 -31 77q0 44 32 76q31 31 79 31t79 -31q32 -32 32 -76q0 -47 -31 -77q-32 -30 -79 -30z" />
    <glyph glyph-name="uni0308" unicode="&#x308;" horiz-adv-x="0" 
d="M-475 1178v-1q-41 0 -68 27t-27 68t27 68t68 27t68 -27t27 -67q0 -41 -27 -68t-68 -27zM-96 1177v-1q-43 0 -70 27t-27 68t27 68t70 27q41 0 68 -27t27 -67q0 -41 -27 -68t-68 -27z" />
    <glyph glyph-name="uni030A" unicode="&#x30a;" horiz-adv-x="0" 
d="M-229 1130h-1q-96 0 -162 63t-66 158t66 158t163 63q98 0 164 -63t66 -158t-66 -158t-164 -63zM-230 1237l-1 -2q55 0 87 32t32 83q0 52 -31 83q-32 32 -87 32q-53 0 -84 -31q-32 -32 -32 -83t32 -83q31 -31 84 -31z" />
    <glyph glyph-name="uni030B" unicode="&#x30b;" horiz-adv-x="0" 
d="M-649 1184l157 278h160l-170 -278h-147zM-336 1184l176 278h162l-190 -278h-148z" />
    <glyph glyph-name="uni030C" unicode="&#x30c;" horiz-adv-x="0" 
d="M-160 1450h160l-223 -270h-166l-221 270h161l144 -186z" />
    <glyph glyph-name="uni0312" unicode="&#x312;" horiz-adv-x="0" 
d="M0 1556l-27 -366h-153l57 366h123z" />
    <glyph glyph-name="uni0326" unicode="&#x326;" horiz-adv-x="0" 
d="M-180 -512l26 367h154l-57 -367h-123z" />
    <glyph glyph-name="uni0327" unicode="&#x327;" horiz-adv-x="0" 
d="M-221 -455l-2 2q-119 0 -207 66l27 90q95 -66 186 -54q92 12 92 78q0 53 -69 72t-142 3l64 199h127l-37 -119q82 -6 132 -51q49 -45 49 -111q0 -82 -63 -129q-62 -46 -157 -46z" />
    <glyph glyph-name="uni0328" unicode="&#x328;" horiz-adv-x="0" 
d="M-176 -457l2 -1q-90 0 -147 51t-57 139q0 62 47 136q46 73 119 132h133q-75 -65 -119 -130q-45 -68 -45 -118q0 -39 23 -64q22 -24 63 -24q73 0 125 66l33 -111q-61 -76 -177 -76z" />
    <glyph glyph-name="uni0394" unicode="&#x394;" horiz-adv-x="1419" 
d="M811 1434l586 -1434h-1374l585 1434h203zM256 147h907l-452 1125z" />
    <glyph glyph-name="uni03A9" unicode="&#x3a9;" horiz-adv-x="1685" 
d="M1593 743l-1 1q0 -196 -90 -347t-248 -249h324v-147h-582v147q194 66 315 225q121 158 121 360q0 242 -166 408q-167 167 -423 167q-257 0 -423 -168q-167 -169 -167 -408q0 -202 121 -360q122 -159 313 -225v-147h-579v147h319q-156 96 -246 249t-90 347q0 302 214 510
t538 208q325 0 537 -208q213 -209 213 -510z" />
    <glyph glyph-name="uni03BC" unicode="&#x3bc;" horiz-adv-x="1323" 
d="M1270 129l36 -131q-62 -25 -123 -25q-193 0 -231 179q-129 -178 -366 -180q-163 0 -275 107v-510h-157v1452h157v-578q0 -147 78 -234t209 -87q155 0 250 107q94 106 94 279v514h158v-770q0 -137 92 -137q33 0 78 14z" />
    <glyph glyph-name="pi" unicode="&#x3c0;" horiz-adv-x="1329" 
d="M1266 899h-224v-647q0 -131 91 -131q44 0 75 16l37 -129q-60 -27 -125 -26q-231 0 -231 270v647h-461v-899h-154v899h-213v143h1205v-143z" />
    <glyph glyph-name="Wgrave" unicode="&#x1e80;" horiz-adv-x="2019" 
d="M1100 1595h-146l-198 279h182zM1819 1434h170l-451 -1434h-170l-358 1167l-359 -1167h-170l-450 1434h170l366 -1203l367 1203h149l367 -1203z" />
    <glyph glyph-name="wgrave" unicode="&#x1e81;" horiz-adv-x="1574" 
d="M877 1184h-146l-199 278h183zM1386 1022h164l-350 -1022h-153l-259 786l-260 -786h-153l-352 1022h165l269 -821l262 821h137l262 -821z" />
    <glyph glyph-name="Wacute" unicode="&#x1e82;" horiz-adv-x="2019" 
d="M1264 1874l-199 -279h-145l163 279h181zM1819 1434h170l-451 -1434h-170l-358 1167l-359 -1167h-170l-450 1434h170l366 -1203l367 1203h149l367 -1203z" />
    <glyph glyph-name="wacute" unicode="&#x1e83;" horiz-adv-x="1574" 
d="M1040 1462l-198 -278h-146l164 278h180zM1386 1022h164l-350 -1022h-153l-259 786l-260 -786h-153l-352 1022h165l269 -821l262 821h137l262 -821z" />
    <glyph glyph-name="Wdieresis" unicode="&#x1e84;" horiz-adv-x="2019" 
d="M821 1589v-1q-41 0 -68 28t-27 69t27 68t68 27t69 -27t28 -67q0 -41 -28 -69t-69 -28zM1200 1588v-1q-43 0 -70 28q-27 29 -27 69q0 41 27 68t70 27q41 0 68 -27t27 -67q0 -41 -27 -69t-68 -28zM1819 1432h170l-451 -1434h-170l-358 1167l-359 -1167h-170l-450 1434h170
l366 -1203l367 1203h149l367 -1203z" />
    <glyph glyph-name="wdieresis" unicode="&#x1e85;" horiz-adv-x="1574" 
d="M598 1178v-1q-41 0 -68 27t-27 68t27 68t68 27t68 -27t27 -67q0 -41 -27 -68t-68 -27zM977 1177v-1q-43 0 -70 27t-27 68t27 68t70 27q41 0 68 -27t27 -67q0 -41 -27 -68t-68 -27zM1386 1020h164l-350 -1022h-153l-259 786l-260 -786h-153l-352 1022h165l269 -821
l262 821h137l262 -821z" />
    <glyph glyph-name="Ygrave" unicode="&#x1ef2;" horiz-adv-x="1335" 
d="M760 1595h-146l-198 279h182zM1128 1434h185l-563 -885v-549h-164v549l-563 885h186l459 -732z" />
    <glyph glyph-name="ygrave" unicode="&#x1ef3;" horiz-adv-x="1118" 
d="M659 1184h-145l-199 278h183zM928 1022h168l-629 -1452h-166l195 450l-473 1002h174l378 -825z" />
    <glyph glyph-name="endash" unicode="&#x2013;" horiz-adv-x="1280" 
d="M143 567v135h994v-135h-994z" />
    <glyph glyph-name="emdash" unicode="&#x2014;" horiz-adv-x="1894" 
d="M143 567v135h1608v-135h-1608z" />
    <glyph glyph-name="quoteleft" unicode="&#x2018;" horiz-adv-x="493" 
d="M381 1434l-88 -492h-180l135 492h133z" />
    <glyph glyph-name="quoteright" unicode="&#x2019;" horiz-adv-x="493" 
d="M113 942l88 492h180l-133 -492h-135z" />
    <glyph glyph-name="quotesinglbase" unicode="&#x201a;" horiz-adv-x="493" 
d="M113 -281l88 492h180l-133 -492h-135z" />
    <glyph glyph-name="quotedblleft" unicode="&#x201c;" horiz-adv-x="804" 
d="M381 1434l-88 -492h-180l135 492h133zM692 1434l-88 -492h-180l135 492h133z" />
    <glyph glyph-name="quotedblright" unicode="&#x201d;" horiz-adv-x="804" 
d="M113 942l88 492h180l-133 -492h-135zM424 942l90 492h178l-133 -492h-135z" />
    <glyph glyph-name="quotedblbase" unicode="&#x201e;" horiz-adv-x="804" 
d="M113 -281l88 492h180l-133 -492h-135zM424 -281l90 492h178l-133 -492h-135z" />
    <glyph glyph-name="dagger" unicode="&#x2020;" horiz-adv-x="1030" 
d="M436 0v977h-344v145h344v373h158v-373h344v-145h-344v-977h-158z" />
    <glyph glyph-name="daggerdbl" unicode="&#x2021;" horiz-adv-x="1030" 
d="M436 0v373h-344v145h344v459h-344v145h344v373h158v-373h344v-145h-344v-459h344v-145h-344v-373h-158z" />
    <glyph glyph-name="bullet" unicode="&#x2022;" horiz-adv-x="618" 
d="M311 401v2q-84 1 -141 57t-57 138q0 80 57 132t141 54q82 1 139 -54q57 -56 57 -135q0 -82 -57 -139q-56 -56 -139 -55z" />
    <glyph glyph-name="ellipsis" unicode="&#x2026;" horiz-adv-x="1275" 
d="M227 -14q-49 0 -82 33t-33 82q0 47 33 78q34 32 82 32t82 -32q33 -31 33 -78q0 -49 -33 -82t-82 -33zM639 -14q-49 0 -82 33t-33 82q0 47 33 78q34 32 82 32q46 0 80 -32q33 -31 33 -78q0 -49 -33 -82t-80 -33zM1048 -14q-49 0 -82 33t-33 82q0 47 33 78q34 32 82 32
t82 -32q33 -31 33 -78q0 -49 -33 -82t-82 -33z" />
    <glyph glyph-name="perthousand" unicode="&#x2030;" horiz-adv-x="2930" 
d="M494 682q-164 0 -278 111t-114 273t114 273t278 111q166 0 280 -111t114 -273t-114 -273t-280 -111zM483 0l930 1434h148l-928 -1434h-150zM494 811h-3q111 0 185 75q74 76 74 179q0 106 -74 180t-184 74q-111 0 -183 -74q-72 -73 -72 -180q0 -103 74 -179
q73 -75 183 -75zM1549 -16v-2q-163 0 -277 111t-114 272q0 162 114 273t277 111q167 0 279 -111q113 -111 113 -272q0 -160 -113 -271q-112 -111 -279 -111zM2434 -18l-2 -2q-163 0 -277 111t-114 272q0 162 114 273t278 111q167 0 279 -111q113 -111 113 -272
q0 -160 -112 -271q-113 -111 -279 -111zM1547 109v-1q109 0 183 75q74 76 74 180q0 107 -72 180q-72 74 -183 74q-110 0 -184 -74q-73 -73 -73 -180q0 -104 72 -179t183 -75zM2432 108v-1q110 0 183 75q74 76 74 180q0 106 -72 180t-183 74q-110 0 -184 -74
q-73 -73 -73 -180q0 -104 72 -179t183 -75z" />
    <glyph glyph-name="guilsinglleft" unicode="&#x2039;" horiz-adv-x="653" 
d="M510 1014l-205 -359l205 -358h-160l-207 358l207 359h160z" />
    <glyph glyph-name="guilsinglright" unicode="&#x203a;" horiz-adv-x="653" 
d="M303 1014l207 -359l-207 -358h-160l205 358l-205 359h160z" />
    <glyph glyph-name="fraction" unicode="&#x2044;" horiz-adv-x="385" 
d="M-324 0l897 1434h134l-895 -1434h-136z" />
    <glyph glyph-name="uni2070" unicode="&#x2070;" horiz-adv-x="790" 
d="M395 903l-2 -1q-158 0 -248 118t-90 310q0 195 90 312t249 117q156 0 247 -117q91 -116 91 -312q0 -193 -90 -310t-247 -117zM393 1025l-1 -1q101 0 153 82t52 224t-52 224q-53 83 -153 83t-151 -82q-51 -83 -51 -225q0 -143 51 -224t152 -81z" />
    <glyph glyph-name="uni2074" unicode="&#x2074;" horiz-adv-x="708" 
d="M672 1208v-114h-107v-172h-123v172h-415v100l295 547h137l-285 -533h268v183h123v-183h107z" />
    <glyph glyph-name="uni2075" unicode="&#x2075;" horiz-adv-x="702" 
d="M375 1440l1 -2q121 0 197 -74q75 -74 75 -195q0 -117 -81 -192t-210 -75q-124 0 -204 65q-79 65 -105 156l113 31q51 -139 192 -139q80 0 125 45t45 113q0 73 -45 116q-46 44 -125 44q-107 0 -183 -55l-92 31l37 432h495v-113h-387l-20 -225q77 37 172 37z" />
    <glyph glyph-name="uni2076" unicode="&#x2076;" horiz-adv-x="677" 
d="M360 1464v-1q122 -1 202 -81q79 -79 79 -196q0 -121 -84 -202t-217 -81q-134 0 -219 81t-84 202q0 88 63 186l244 369h137l-184 -283q19 6 63 6zM340 1015l-1 -1q79 0 129 48q49 48 49 122q0 72 -50 120q-49 48 -129 48q-78 0 -127 -48t-49 -119q0 -74 49 -122t129 -48z
" />
    <glyph glyph-name="uni2077" unicode="&#x2077;" horiz-adv-x="624" 
d="M23 1741h577v-94l-317 -725h-138l310 706h-432v113z" />
    <glyph glyph-name="uni2078" unicode="&#x2078;" horiz-adv-x="716" 
d="M522 1366v-1q146 -63 148 -215q0 -107 -85 -177q-86 -71 -225 -71q-141 0 -227 71t-86 177q0 152 150 215q-115 58 -115 177q0 92 77 155t201 63q122 0 198 -63q77 -63 77 -154q0 -118 -113 -177zM360 1652l-1 -1q-73 0 -114 -35q-40 -34 -40 -87q0 -52 41 -87t114 -35
q67 0 111 35q43 34 43 87q0 51 -43 87t-111 36zM359 1010l-1 1q83 0 132 43q50 44 50 107t-49 105t-132 42q-85 0 -134 -42q-50 -42 -50 -106q0 -66 50 -108q49 -42 134 -42z" />
    <glyph glyph-name="uni2079" unicode="&#x2079;" horiz-adv-x="751" 
d="M375 1761l-1 1q134 0 219 -82q86 -83 86 -202q-1 -89 -66 -187l-243 -368h-138l185 282q-29 -6 -62 -6q-122 1 -202 81q-79 79 -79 197q0 122 85 203t216 81zM376 1310h1q77 0 127 48q49 48 49 120q0 74 -49 123t-129 49q-79 0 -128 -49q-50 -50 -50 -123q0 -72 50 -120
q49 -48 129 -48z" />
    <glyph glyph-name="uni2080" unicode="&#x2080;" horiz-adv-x="790" 
d="M395 -328h-2q-158 0 -248 119t-90 311q0 195 90 312t249 117q156 0 247 -117q91 -116 91 -312q0 -194 -90 -312t-247 -118zM393 -205l-1 1q100 0 153 83q52 82 52 224t-52 224q-53 83 -153 83t-151 -83t-51 -225t51 -225q51 -82 152 -82z" />
    <glyph glyph-name="uni2081" unicode="&#x2081;" horiz-adv-x="497" 
d="M268 512h111v-819h-127v672l-205 -99l-31 113z" />
    <glyph glyph-name="uni2082" unicode="&#x2082;" horiz-adv-x="694" 
d="M244 -193l393 -2v-114h-592v88l328 313q59 56 88 98q27 39 27 84q0 63 -39 102t-111 39q-137 0 -170 -154l-121 33q14 98 93 167q80 69 196 69q129 0 208 -67t79 -183q0 -72 -36 -126q-35 -53 -110 -123z" />
    <glyph glyph-name="uni2083" unicode="&#x2083;" horiz-adv-x="716" 
d="M434 197l-1 -1q102 -12 165 -81t63 -169q0 -116 -83 -196q-82 -79 -212 -79q-139 0 -220 72q-80 71 -100 176l117 33q12 -74 66 -120q55 -47 131 -47q79 0 128 47q48 46 48 114t-46 113t-132 45q-21 0 -57 -4l-20 78l194 221h-403v113h561v-94z" />
    <glyph glyph-name="uni2084" unicode="&#x2084;" horiz-adv-x="708" 
d="M672 -20v-115h-107v-172h-123v172h-415v98l295 549h137l-285 -532h268v182h123v-182h107z" />
    <glyph glyph-name="uni2085" unicode="&#x2085;" horiz-adv-x="702" 
d="M375 211h2q121 0 197 -74q75 -74 75 -194q0 -118 -82 -194q-83 -77 -210 -77q-123 0 -205 65q-80 64 -103 159l113 30q22 -62 72 -102q49 -40 119 -40q80 0 125 45t45 115q0 72 -45 116q-46 44 -125 44q-107 0 -183 -55l-92 31l37 432h495v-113h-387l-20 -225
q77 37 172 37z" />
    <glyph glyph-name="uni2086" unicode="&#x2086;" horiz-adv-x="677" 
d="M360 236v-1q122 -1 202 -81q79 -79 79 -197q0 -122 -85 -204t-216 -82q-134 0 -219 82q-85 83 -84 204q0 89 63 186l244 369h137l-184 -283q18 7 63 7zM340 -216h-1q79 0 128 49q50 50 50 123q0 72 -50 120q-49 48 -129 48q-78 0 -127 -48t-49 -120q0 -74 49 -123
t129 -49z" />
    <glyph glyph-name="uni2087" unicode="&#x2087;" horiz-adv-x="624" 
d="M23 512h577v-94l-317 -725h-138l310 706h-432v113z" />
    <glyph glyph-name="uni2088" unicode="&#x2088;" horiz-adv-x="716" 
d="M522 137v-1q146 -63 148 -215q0 -110 -85 -180t-225 -70q-141 0 -227 71t-86 179q0 152 150 215q-115 58 -115 177q0 92 77 155t201 63q121 0 198 -62t77 -155q0 -118 -113 -177zM360 423l-1 -1q-73 0 -114 -35q-40 -34 -40 -87q0 -52 41 -87t114 -35q67 0 111 35
q43 34 43 87q0 51 -43 87t-111 36zM359 -219l-1 1q83 0 132 43q50 44 50 107t-49 105t-132 42q-85 0 -134 -42q-50 -42 -50 -106q0 -66 50 -108q49 -42 134 -42z" />
    <glyph glyph-name="uni2089" unicode="&#x2089;" horiz-adv-x="677" 
d="M338 532h-2q134 0 219 -81t84 -202q0 -83 -63 -187l-244 -368h-137l184 282q-19 -6 -63 -6q-123 2 -201 81t-78 197q0 122 85 203q86 81 216 81zM338 80h1q77 0 127 48q49 48 49 120q0 74 -49 123t-129 49q-79 0 -128 -49q-50 -50 -50 -123q0 -72 50 -120q49 -48 129 -48
z" />
    <glyph glyph-name="franc" unicode="&#x20a3;" horiz-adv-x="1255" 
d="M1141 1284h-774v-477h714v-145h-714v-259h389v-108h-389v-295h-164v295h-119v108h119v1031h938v-150z" />
    <glyph glyph-name="lira" unicode="&#x20a4;" horiz-adv-x="1323" 
d="M453 152h790v-152h-1147v152h195v331h-158v109h158v137h-158v109h158v219q0 194 113 301q112 106 300 106q179 0 294 -100q116 -100 144 -246l-144 -41q-68 240 -297 240q-119 0 -183 -70q-65 -71 -65 -198v-211h522v-109h-522v-137h522v-109h-522v-331z" />
    <glyph glyph-name="Euro" unicode="&#x20ac;" horiz-adv-x="1548" 
d="M1360 252l92 -122q-195 -156 -467 -156q-265 0 -462 155t-258 402h-205v109h187q-4 47 -4 81t4 78h-187v108h205q61 246 258 399t461 153q269 0 468 -151l-98 -125q-154 123 -369 123q-203 0 -348 -111q-146 -111 -201 -289h658v-108h-680q-4 -44 -4 -76q0 -44 6 -84h678
v-109h-656q56 -180 202 -291q147 -111 348 -111q220 0 372 125z" />
    <glyph glyph-name="uni20BF" unicode="&#x20bf;" horiz-adv-x="1370" 
d="M1014 750h1q121 -40 189 -134t68 -218q0 -172 -123 -285q-122 -112 -334 -112h-82v-266h-129v266h-162v-266h-127v266h-266v145h164v1143h-164v146h266v266h127v-266h162v266h129v-266h37q194 0 317 -105q124 -105 125 -268q2 -110 -51 -189t-147 -123zM763 1288l-389 -2
v-485h407q122 0 196 71q73 70 73 174t-79 173q-80 69 -208 69zM808 143q136 0 219 77q82 76 82 188q0 104 -80 182q-79 78 -215 78h-440v-525h434z" />
    <glyph glyph-name="uni2116" unicode="&#x2116;" horiz-adv-x="2197" 
d="M1810 819h-1q-137 0 -232 93t-95 228t95 227t233 92q137 0 232 -92q94 -91 94 -227q0 -135 -94 -228t-232 -93zM1163 285v1149h162v-1434h-141l-869 1147v-1147h-163v1434h141zM1808 1335l-1 -1q-85 0 -141 -56t-56 -138q0 -81 56 -139q56 -57 141 -57t140 57t57 140
t-55 138q-58 56 -141 56zM1517 560v125h581v-125h-581z" />
    <glyph glyph-name="trademark" unicode="&#x2122;" horiz-adv-x="1460" 
d="M289 778v555h-228v101h564v-101h-228v-555h-108zM702 778v656h107l227 -324l224 324h108v-656h-106v482l-224 -318l-231 318v-482h-105z" />
    <glyph glyph-name="estimated" unicode="&#x212e;" horiz-adv-x="1738" 
d="M889 -23l-1 -1q-343 0 -573 215q-229 214 -229 530q0 305 230 521t555 216q326 0 554 -216t228 -521v-33h-1260v-432q184 -217 496 -217q287 0 468 192h162q-260 -254 -630 -254zM392 749h954v430q-184 217 -477 217t-477 -217v-430z" />
    <glyph glyph-name="oneeighth" unicode="&#x215b;" horiz-adv-x="1597" 
d="M252 614v672l-205 -98l-31 112l252 134h111v-820h-127zM1071 1434h133l-895 -1434h-133zM1405 444l1 -1q147 -63 147 -215q0 -106 -85 -178q-86 -72 -225 -72q-141 0 -227 72t-86 178q0 152 149 215q-116 59 -114 179q0 92 77 155q76 63 201 63q121 0 198 -63t77 -154
q0 -120 -113 -179zM1244 730q-74 0 -114 -34q-41 -35 -41 -88t41 -88t114 -35q67 0 111 35q43 34 43 87q0 51 -43 87t-111 36zM1244 89q83 0 132 43t49 107q0 63 -49 105q-50 42 -132 42q-84 0 -134 -42t-50 -105q0 -66 50 -108t134 -42z" />
    <glyph glyph-name="threeeighths" unicode="&#x215c;" horiz-adv-x="1816" 
d="M662 868l-1 -4q0 -115 -83 -193q-82 -78 -212 -78q-139 0 -220 72t-100 175l117 32q12 -71 66 -118q53 -46 131 -46q81 0 128 46q48 46 48 114t-46 113t-132 45q-21 0 -57 -4l-20 78l194 221h-403v113h561v-95l-199 -221q102 -12 165 -81t63 -169zM1289 1430h133
l-895 -1434h-133zM1623 440v-1q146 -63 148 -215q0 -106 -85 -178q-86 -72 -225 -72q-141 0 -227 72t-86 178q0 152 149 215q-116 59 -114 179q0 92 77 155q76 63 201 63q121 0 198 -63t77 -154q0 -120 -113 -179zM1461 726h-1q-74 0 -114 -34t-40 -88q0 -53 41 -88t114 -35
q67 0 111 35q43 34 43 87q0 51 -43 87q-44 36 -111 36zM1460 85q83 0 132 43t49 107q0 63 -49 105q-50 42 -132 42q-84 0 -134 -42t-50 -105q0 -66 50 -108t134 -42z" />
    <glyph glyph-name="fiveeighths" unicode="&#x215d;" horiz-adv-x="1802" 
d="M647 864l1 -1q0 -117 -81 -192t-210 -75q-124 0 -204 65q-79 65 -105 156l113 31q51 -139 192 -139q80 0 125 45t45 112q0 72 -45 116q-46 44 -125 44q-107 0 -183 -55l-92 30l37 433h495v-113h-387l-20 -225q77 37 172 37q121 0 197 -74q75 -73 75 -195zM1277 1433h133
l-895 -1434h-133zM1611 443v-1q147 -63 147 -215q0 -106 -85 -178t-225 -72q-142 0 -227 72q-86 72 -86 178q0 152 149 215q-115 58 -115 179q0 92 77 155q76 63 201 63q121 0 198 -63t77 -154q2 -120 -111 -179zM1449 729q-74 0 -114 -34q-41 -35 -41 -88t41 -88t114 -35
q67 0 111 35q43 34 43 87q0 51 -43 87q-44 36 -111 36zM1449 88q83 0 132 43t49 107q0 63 -49 105t-132 42q-85 0 -134 -42q-50 -42 -50 -105q0 -66 50 -108q49 -42 134 -42z" />
    <glyph glyph-name="seveneighths" unicode="&#x215e;" horiz-adv-x="1724" 
d="M600 1434v-95l-317 -725h-138l310 707h-432v113h577zM1198 1434h133l-895 -1434h-133zM1532 444l1 -1q147 -63 147 -215q0 -106 -85 -178t-225 -72q-142 0 -227 72q-86 72 -86 178q0 152 149 215q-116 59 -114 179q0 92 77 155t201 63q122 0 198 -63q77 -63 77 -154
q0 -120 -113 -179zM1371 730q-74 0 -114 -34q-41 -35 -41 -88t41 -88t114 -35q67 0 111 35q43 34 43 87q0 51 -43 87q-44 36 -111 36zM1371 89q83 0 132 43t49 107q0 63 -49 105t-132 42q-85 0 -134 -42q-50 -42 -50 -105q0 -66 50 -108q49 -42 134 -42z" />
    <glyph glyph-name="arrowleft" unicode="&#x2190;" horiz-adv-x="1746" 
d="M1604 772v-139l-1188 -2l483 -481l-102 -101l-654 653l654 654l102 -101l-485 -481z" />
    <glyph glyph-name="arrowup" unicode="&#x2191;" horiz-adv-x="1595" 
d="M1452 807l-102 -100l-476 477l-2 -1184h-149v1186l-477 -479l-103 100l654 653z" />
    <glyph glyph-name="arrowright" unicode="&#x2192;" horiz-adv-x="1746" 
d="M950 1358l654 -653l-654 -654l-102 101l485 481l-1190 2v139l1188 2l-483 481z" />
    <glyph glyph-name="arrowdown" unicode="&#x2193;" horiz-adv-x="1595" 
d="M1350 727l102 -100l-655 -654l-654 654l103 100l477 -479v1186h149l2 -1184z" />
    <glyph glyph-name="arrowboth" unicode="&#x2194;" horiz-adv-x="2308" 
d="M1511 1358l654 -653l-654 -654l-102 101l485 481h-1480l485 -481l-102 -101l-654 654l654 653l102 -101l-483 -481h1476l-483 481z" />
    <glyph glyph-name="arrowupdn" unicode="&#x2195;" horiz-adv-x="1595" 
d="M874 -39l476 477l102 -102l-655 -651l-654 651l103 102l477 -479v1438l-477 -479l-103 102l654 651l655 -651l-102 -102l-476 477l-2 -717z" />
    <glyph glyph-name="uni2196" unicode="&#x2196;" horiz-adv-x="1370" 
d="M1227 266l-103 -104l-837 837v-675l-144 -2v925h924l2 -143l-682 2z" />
    <glyph glyph-name="uni2197" unicode="&#x2197;" horiz-adv-x="1372" 
d="M305 1255h924v-923h-144l2 680l-839 -840l-105 104l840 838l-678 -2v143z" />
    <glyph glyph-name="uni2198" unicode="&#x2198;" horiz-adv-x="1370" 
d="M1083 1108h144v-924h-924v144l678 -2l-838 837l105 107l837 -840z" />
    <glyph glyph-name="uni2199" unicode="&#x2199;" horiz-adv-x="1372" 
d="M389 303l678 2l2 -143h-926v923h144l-2 -679l839 839l105 -104z" />
    <glyph glyph-name="partialdiff" unicode="&#x2202;" horiz-adv-x="1310" 
d="M629 -31h1q-217 0 -367 147t-150 365q0 208 142 347q143 140 363 140q266 0 420 -168q-16 220 -135 372t-306 152q-203 0 -356 -147l-39 143q172 145 405 145q270 0 431 -212t161 -558q0 -330 -156 -528t-414 -198zM634 115l-1 2q176 0 287 147q112 148 116 362
q-67 87 -172 143q-106 57 -237 57q-151 0 -255 -101q-103 -100 -103 -243q0 -154 104 -261q103 -106 261 -106z" />
    <glyph glyph-name="emptyset" unicode="&#x2205;" horiz-adv-x="1081" 
d="M1040 1085l-127 -124q103 -131 105 -306q0 -203 -138 -342t-340 -139q-175 0 -305 107l-123 -123l-72 69l125 125q-101 133 -103 303q0 203 138 342q138 140 341 140q175 0 305 -107l125 125zM191 655l-1 -1q0 -120 67 -209l494 492q-95 68 -213 68q-147 0 -247 -100
t-100 -250zM890 654v-1q0 118 -70 213l-493 -493q95 -68 211 -68q150 0 251 101t101 248z" />
    <glyph glyph-name="product" unicode="&#x220f;" horiz-adv-x="1312" 
d="M1169 1495v-1925h-157v1780h-711v-1780h-158v1925h1026z" />
    <glyph glyph-name="summation" unicode="&#x2211;" horiz-adv-x="1337" 
d="M313 -266h912v-144h-1112v127l635 842l-601 809v127h1039v-143h-838l584 -795z" />
    <glyph glyph-name="minus" unicode="&#x2212;" horiz-adv-x="1132" 
d="M143 651v133h846v-133h-846z" />
    <glyph glyph-name="radical" unicode="&#x221a;" horiz-adv-x="1392" 
d="M1223 1618h159l-546 -1804h-168l-322 850h-233v137h346l286 -789z" />
    <glyph glyph-name="infinity" unicode="&#x221e;" horiz-adv-x="1824" 
d="M1329 1102l-2 -2q157 0 270 -114q113 -115 113 -271q0 -160 -112 -271t-270 -111q-236 0 -416 260q-180 -260 -417 -260q-157 0 -270 111q-112 111 -112 272q0 157 113 272q112 114 270 114q238 0 417 -266q180 266 416 266zM502 465q170 0 338 248q-168 248 -338 248
q-102 0 -176 -72t-74 -176q0 -101 74 -175q73 -73 176 -73zM1321 465v1q101 0 175 72q73 72 73 174t-74 176q-73 73 -174 73q-172 0 -340 -248q168 -248 340 -248z" />
    <glyph glyph-name="integral" unicode="&#x222b;" horiz-adv-x="1122" 
d="M225 -319l3 -1q-143 0 -225 73l61 131q65 -61 160 -61q145 0 180 242l164 1171q52 379 333 379q142 0 222 -74l-61 -131q-57 62 -160 63q-152 0 -186 -238l-164 -1172q-52 -382 -327 -382z" />
    <glyph glyph-name="approxequal" unicode="&#x2248;" horiz-adv-x="1247" 
d="M285 760l-140 42q0 106 60 178t185 72q80 0 165 -42q77 -38 159 -83q74 -41 128 -41q123 0 123 151l141 -41q0 -106 -60 -180q-60 -73 -183 -73q-83 0 -168 42q-77 38 -159 83q-74 41 -126 41q-62 1 -93.5 -36.5t-31.5 -112.5zM287 409l-140 41q0 106 60 177t185 71
q78 0 165 -41q80 -38 159 -83q74 -42 128 -42q123 0 123 152l141 -41q0 -106 -60 -178t-183 -72q-81 0 -168 41q-85 40 -159 81t-126 41q-125 0 -125 -147z" />
    <glyph glyph-name="notequal" unicode="&#x2260;" horiz-adv-x="1134" 
d="M991 592v-133h-477l-129 -295h-121l129 295h-246v133h306l110 252h-420v133h478l129 293h120l-129 -293h248v-133h-305l-111 -252h418z" />
    <glyph glyph-name="lessequal" unicode="&#x2264;" horiz-adv-x="1142" 
d="M989 1276v-148l-680 -262l680 -264v-147l-846 336v149zM143 199v133h846v-133h-846z" />
    <glyph glyph-name="greaterequal" unicode="&#x2265;" horiz-adv-x="1142" 
d="M154 1276l845 -336v-149l-845 -336v147l680 264l-680 262v148zM154 199v133h845v-133h-845z" />
    <glyph glyph-name="lozenge" unicode="&#x25ca;" horiz-adv-x="1198" 
d="M686 1434l399 -717l-399 -717h-172l-401 717l401 717h172zM600 147l315 570l-315 569l-317 -569z" />
    <glyph glyph-name="glyph1" horiz-adv-x="0" 
 />
    <glyph glyph-name="glyph2" horiz-adv-x="681" 
 />
    <glyph glyph-name="i.aalt" horiz-adv-x="466" 
d="M231 1178h-2q-47 0 -79 30q-31 30 -31 77q0 44 32 76q31 31 79 31t79 -31q32 -32 32 -76q0 -47 -31 -77q-32 -30 -79 -30zM151 0v1022h159v-1022h-159z" />
    <glyph glyph-name="f_f_j.dlig" horiz-adv-x="1822" 
d="M1692 1022l-1 -1119q0 -168 -77 -265q-76 -96 -228 -96q-81 0 -168 41l38 131q53 -33 117 -32q160 0 160 213v983h-475v-879h-158v879h-477v-879h-156v879h-215v143h215v135q0 173 86 270q85 96 255 96q122 0 207 -43l-41 -133q-68 34 -150 33q-98 0 -149 -58
q-51 -59 -51 -169v-131h477v135q0 174 93 270t274 96q187 0 324 -107l-41 -133q-131 98 -273 98q-219 0 -219 -227v-131h633z" />
    <glyph glyph-name="f_j.dlig" horiz-adv-x="1189" 
d="M1059 1022l-2 -1118q0 -168 -77 -265q-76 -96 -228 -96q-81 0 -168 41l39 131q50 -33 117 -32q79 0 120 56q40 55 40 156v983h-477v-879h-156v879h-215v143h215v135q0 174 93 270t273 96q189 0 325 -107l-38 -133q-131 98 -275 98q-110 0 -165 -58q-56 -59 -56 -169v-131
h635z" />
    <glyph glyph-name="f_t.dlig" horiz-adv-x="1482" 
d="M1360 166l43 -136q-103 -45 -213 -45q-150 0 -225 87t-75 238v568h-467v-879h-156v879h-215v143h215v135q0 173 83 270q82 96 245 96q97 0 170 -29l-39 -131q-56 18 -117 18q-186 0 -186 -227v-131h467v352h158v-352h350v-143h-350v-568q0 -180 165 -180q75 0 147 35z
" />
    <glyph glyph-name="t_t.dlig" horiz-adv-x="1482" 
d="M1362 166l42 -135q-110 -45 -213 -45q-150 0 -225 87t-75 238v568h-488v-568q0 -180 166 -180q75 0 147 35l43 -135q-103 -45 -213 -45q-150 0 -225 87t-75 238v568h-203v143h203v352h157v-352h488v352h158v-352h352v-143h-352v-568q0 -180 168 -180q73 0 145 35z" />
    <glyph glyph-name="zero.tnum" horiz-adv-x="1189" 
d="M604 -27l-1 -1q-266 0 -413 207t-147 537q0 332 147 537q147 206 413 206t413 -205q147 -206 147 -537q0 -330 -147 -537t-412 -207zM603 124h-2q191 0 293 159t102 432q0 272 -102 433q-102 160 -292 160q-191 0 -294 -160t-103 -433q0 -272 104 -432q103 -159 294 -159
z" />
    <glyph glyph-name="one.tnum" horiz-adv-x="1189" 
d="M717 150h346v-150h-911v150h399v1095l-358 -174l-41 141l428 222h137v-1284z" />
    <glyph glyph-name="two.tnum" horiz-adv-x="1189" 
d="M360 150l738 -2v-150h-981v121l571 551q117 113 170 188q53 76 53 164q0 133 -83 210t-228 77q-128 0 -216 -76q-89 -77 -117 -205l-147 41q26 161 156 275t321 114q212 0 342 -115q131 -116 131 -316q0 -125 -66 -225q-65 -99 -203 -231z" />
    <glyph glyph-name="three.tnum" horiz-adv-x="1189" 
d="M668 870l1 1q201 0 321 -120t120 -315q0 -197 -142 -332t-357 -135q-226 0 -363 119q-136 118 -174 287l147 41q27 -128 129 -214q101 -85 254 -85q162 0 255 93t93 226q0 134 -84 219q-84 86 -223 86q-104 0 -186 -55l-31 109l414 491h-727v148h940v-121z" />
    <glyph glyph-name="four.tnum" horiz-adv-x="1189" 
d="M1141 465v-148h-197v-317h-164v317h-741v123l534 994h177l-521 -969h551v362h164v-362h197z" />
    <glyph glyph-name="five.tnum" horiz-adv-x="1189" 
d="M633 913l1 -1q214 0 351 -129t137 -338q0 -201 -142 -337t-360 -136q-210 0 -343 110q-132 110 -177 273l148 39q39 -123 132 -198t234 -75q159 0 254 94q96 95 96 234q0 143 -93 234q-92 91 -256 91q-190 0 -336 -119l-123 39l61 740h832v-148h-687l-38 -457
q130 84 309 84z" />
    <glyph glyph-name="six.tnum" horiz-adv-x="1189" 
d="M623 946h1q220 -5 357 -142q138 -138 138 -343q0 -207 -144 -348t-369 -141t-369 141t-144 348q0 151 117 330l430 643h184l-342 -512q62 24 141 24zM607 123v-2q157 0 254 96q98 96 98 242q0 145 -98 243t-255 98t-254 -97q-98 -98 -98 -243t98 -241t255 -96z" />
    <glyph glyph-name="seven.tnum" horiz-adv-x="1189" 
d="M106 1434h986v-123l-584 -1311h-174l573 1284h-801v150z" />
    <glyph glyph-name="eight.tnum" horiz-adv-x="1189" 
d="M872 776h-1q125 -51 195 -147q71 -97 71 -225q0 -187 -145 -308q-146 -122 -379 -122q-235 0 -381 122q-145 121 -145 308q0 128 71 225q70 96 195 147q-96 46 -150 126t-54 182q0 158 128 266q127 108 336 108q207 0 335 -108t128 -266q0 -102 -54 -182t-150 -126z
M613 1321h-1q-140 0 -223 -69q-82 -69 -82 -175t82 -175q83 -69 223 -69t222 69q83 69 83 175t-82 175q-83 69 -222 69zM612 117l-2 -1q162 0 263 84t101 209q0 128 -99 209t-263 81q-166 0 -264 -81t-98 -208t98 -210t264 -83z" />
    <glyph glyph-name="nine.tnum" horiz-adv-x="1189" 
d="M610 1460l-1 1q224 0 369 -140q144 -140 144 -347q0 -151 -116 -330l-430 -643h-185l342 512q-63 -25 -141 -24q-218 1 -357 140q-138 138 -138 344q0 207 144 347q145 140 369 140zM610 636v-1q157 0 255 97q99 98 99 241q0 146 -99 242t-256 96t-254 -96
q-98 -96 -98 -242q0 -145 98 -241q97 -96 255 -96z" />
    <glyph glyph-name="zero.dnom" horiz-adv-x="790" 
d="M395 -20h-2q-158 0 -248 119t-90 312q0 195 90 312t249 117q156 0 247 -118t91 -312t-90 -312t-247 -118zM393 104l-1 -1q101 0 153 82t52 224t-52 224q-53 83 -153 83t-151 -83t-51 -224q0 -143 51 -224t152 -81z" />
    <glyph glyph-name="one.dnom" horiz-adv-x="497" 
d="M268 819h111v-819h-127v672l-205 -99l-31 113z" />
    <glyph glyph-name="two.dnom" horiz-adv-x="694" 
d="M244 115h393v-115h-592v88l328 313q59 56 88 98q27 39 27 84q0 63 -39 101q-40 38 -111 38q-137 0 -170 -154l-121 33q13 97 93 168q79 70 196 70q129 0 208 -67t79 -184q0 -72 -36 -126q-34 -51 -110 -124z" />
    <glyph glyph-name="three.dnom" horiz-adv-x="716" 
d="M434 504l-1 1q102 -12 165 -81t63 -169q0 -115 -83 -195q-82 -79 -212 -79q-139 0 -220 72q-80 71 -100 174l117 33q12 -73 66 -119q55 -47 131 -47q81 0 128 46q48 46 48 114t-46 113t-132 45q-21 0 -57 -4l-20 77l194 222h-403v112h561v-94z" />
    <glyph glyph-name="four.dnom" horiz-adv-x="708" 
d="M672 287v-115h-107v-172h-123v172h-415v100l295 547h137l-285 -532h268v182h123v-182h107z" />
    <glyph glyph-name="five.dnom" horiz-adv-x="702" 
d="M375 518l2 -2q123 0 197 -73q75 -73 75 -195q0 -117 -82 -193t-210 -76q-125 0 -204 66t-105 158l113 30q51 -139 192 -139q80 0 125 45t45 113q0 72 -45 116q-46 44 -125 44q-106 0 -183 -56l-92 31l37 432h495v-112h-387l-20 -226q77 37 172 37z" />
    <glyph glyph-name="six.dnom" horiz-adv-x="677" 
d="M360 543v-2q122 -1 202 -81q79 -79 79 -197q0 -121 -85 -202q-86 -81 -216 -81q-134 0 -219 81q-86 81 -84 203q0 88 63 187l244 368h137l-184 -282q19 6 63 6zM340 92h-1q79 0 129 48q49 48 49 122q0 72 -50 120q-49 48 -129 48q-78 0 -127 -48t-49 -120q0 -74 49 -122
t129 -48z" />
    <glyph glyph-name="seven.dnom" horiz-adv-x="624" 
d="M23 819h577v-94l-317 -725h-138l310 707h-432v112z" />
    <glyph glyph-name="eight.dnom" horiz-adv-x="716" 
d="M522 444v-1q146 -63 148 -215q0 -106 -85 -178t-225 -72q-142 0 -227 72q-86 72 -86 178q0 152 150 215q-115 58 -115 179q0 92 77 155t201 63q122 0 198 -63q77 -63 77 -154q0 -120 -113 -179zM360 730h-1q-74 0 -114 -34t-40 -88q0 -53 41 -88t114 -35q67 0 111 35
q43 34 43 87q0 51 -43 87t-111 36zM359 89h-1q83 0 132 43q50 44 50 107t-49 105t-132 42q-85 0 -134 -42q-50 -42 -50 -105q0 -66 50 -108t134 -42z" />
    <glyph glyph-name="nine.dnom" horiz-adv-x="751" 
d="M375 840l-1 1q134 0 219 -82q86 -83 86 -204q-1 -90 -66 -186l-243 -369h-138l185 283q-25 -5 -62 -7q-122 1 -202 81q-79 79 -79 197q0 122 85 204t216 82zM376 388h1q77 0 127 48q49 48 49 120q0 74 -49 123t-129 49q-79 0 -128 -49q-50 -50 -50 -123q0 -72 50 -120
q49 -48 129 -48z" />
    <glyph glyph-name="zero.numr" horiz-adv-x="790" 
d="M395 596l-2 -1q-158 0 -248 117t-90 311q0 195 90 312t249 117q156 0 247 -117q91 -116 91 -312q0 -193 -90 -310t-247 -117zM393 718h-1q101 0 153 82t52 223q0 142 -52 224q-53 83 -153 83t-151 -83t-51 -224q0 -143 51 -224t152 -81z" />
    <glyph glyph-name="one.numr" horiz-adv-x="497" 
d="M268 1434h111v-820h-127v672l-205 -98l-31 112z" />
    <glyph glyph-name="two.numr" horiz-adv-x="694" 
d="M244 729h393v-115h-592v88l328 314q59 56 88 98q27 39 27 84q0 64 -39 101q-40 38 -111 38q-137 0 -170 -153l-121 33q14 98 93 167t196 69q129 0 208 -67t79 -184q0 -72 -36 -126q-34 -51 -110 -124z" />
    <glyph glyph-name="three.numr" horiz-adv-x="716" 
d="M434 1118l-1 -4q102 -12 165 -81t63 -169q0 -115 -83 -193q-82 -78 -212 -78q-139 0 -220 72t-100 175l117 32q12 -71 66 -118q53 -46 131 -46q81 0 128 46q48 46 48 114t-46 113t-132 45q-21 0 -57 -4l-20 78l194 221h-403v113h561v-95z" />
    <glyph glyph-name="four.numr" horiz-adv-x="708" 
d="M672 901v-115h-107v-172h-123v172h-415v101l295 547h137l-285 -533h268v182h123v-182h107z" />
    <glyph glyph-name="five.numr" horiz-adv-x="702" 
d="M375 1133l1 -1q121 0 197 -74q75 -74 75 -195q0 -117 -81 -192t-210 -75q-124 0 -204 65q-79 65 -105 156l113 31q51 -139 192 -139q80 0 125 45t45 112q0 72 -45 116q-46 44 -125 44q-107 0 -183 -55l-92 30l37 433h495v-113h-387l-20 -225q77 37 172 37z" />
    <glyph glyph-name="six.numr" horiz-adv-x="677" 
d="M360 1157v-2q122 -1 202 -81q79 -79 79 -195q0 -121 -84 -202t-217 -81q-134 0 -219 81t-84 202q0 89 63 186l244 369h137l-184 -283q19 6 63 6zM340 707l-1 -1q79 0 129 48q49 48 49 122q0 72 -50 120q-49 48 -129 48q-78 0 -127 -48t-49 -119q0 -74 49 -122t129 -48z
" />
    <glyph glyph-name="seven.numr" horiz-adv-x="624" 
d="M23 1434h577v-95l-317 -725h-138l310 707h-432v113z" />
    <glyph glyph-name="eight.numr" horiz-adv-x="716" 
d="M522 1059v-1q146 -63 148 -215q0 -107 -85 -177q-86 -71 -225 -71q-141 0 -227 71t-86 177q0 152 150 215q-115 58 -115 177q0 92 77 155t201 63q122 0 198 -63q77 -63 77 -154q0 -118 -113 -177zM360 1345l-1 -2q-73 0 -114 -35q-40 -34 -40 -88q0 -53 41 -88
q40 -34 114 -34q67 0 111 35q43 34 43 89q0 51 -43 87t-111 36zM359 702l-1 1q83 0 132 43q50 44 50 107t-49 105t-132 42q-85 0 -134 -42q-50 -42 -50 -106q0 -66 50 -108t134 -42z" />
    <glyph glyph-name="nine.numr" horiz-adv-x="751" 
d="M375 1454l-1 2q134 0 219 -82q86 -83 86 -204q-1 -90 -66 -186l-243 -369h-138l185 283q-28 -6 -62 -6q-122 1 -202 81q-79 79 -79 195q0 122 85 204t216 82zM376 1003l1 1q77 0 127 48q49 48 49 119q0 74 -49 123t-129 49q-79 0 -128 -49q-50 -50 -50 -123
q0 -72 50 -120q49 -48 129 -48z" />
    </font>
</defs>
</svg>
